<svg xmlns="http://www.w3.org/2000/svg" width="769.952392578125" height="618.0548095703125" viewBox="-508.875732421875 -398.2484436035156 769.952392578125 618.0548095703125"><title>Neo4j Graph Visualization</title><desc>Created using Neo4j (http://www.neo4j.com/)</desc><g class="layer relationships"><g class="relationship" transform="translate(3.4732259988107614 -64.60107579782012) rotate(411.3345839198321)"><path class="outline" fill="#A5ABB6" stroke="none" d="M 25 0.5 L 44.8880702889645 0.5 L 44.8880702889645 -0.5 L 25 -0.5 Z M 90.4505702889645 0.5 L 110.338640577929 0.5 L 110.338640577929 3.5 L 117.338640577929 0 L 110.338640577929 -3.5 L 110.338640577929 -0.5 L 90.4505702889645 -0.5 Z"/><text text-anchor="middle" pointer-events="none" font-size="8px" fill="#000000" x="67.6693202889645" y="3" font-family="sans-serif">ACTED_IN</text></g><g class="relationship" transform="translate(3.4732259988107614 -64.60107579782012) rotate(309.53273983592123)"><path class="outline" fill="#A5ABB6" stroke="none" d="M 25 0.5 L 44.03814595298708 0.5 L 44.03814595298708 -0.5 L 25 -0.5 Z M 89.60064595298708 0.5 L 108.63879190597416 0.5 L 108.63879190597416 3.5 L 115.63879190597416 0 L 108.63879190597416 -3.5 L 108.63879190597416 -0.5 L 89.60064595298708 -0.5 Z"/><text text-anchor="middle" pointer-events="none" font-size="8px" fill="#000000" x="66.81939595298708" y="3" font-family="sans-serif">ACTED_IN</text></g><g class="relationship" transform="translate(3.4732259988107614 -64.60107579782012) rotate(215.53809743430446)"><path class="outline" fill="#A5ABB6" stroke="none" d="M 25 0.5 L 78.6986739695324 0.5 L 78.6986739695324 -0.5 L 25 -0.5 Z M 124.2611739695324 0.5 L 177.9598479390648 0.5 L 177.9598479390648 3.5 L 184.9598479390648 0 L 177.9598479390648 -3.5 L 177.9598479390648 -0.5 L 124.2611739695324 -0.5 Z"/><text text-anchor="middle" pointer-events="none" font-size="8px" fill="#000000" x="101.4799239695324" y="3" transform="rotate(180 101.4799239695324 0)" font-family="sans-serif">ACTED_IN</text></g><g class="relationship" transform="translate(3.4732259988107614 -64.60107579782012) rotate(187.65943814712563)"><path class="outline" fill="#A5ABB6" stroke="none" d="M 25 0.5 L 61.93260385696037 0.5 L 61.93260385696037 -0.5 L 25 -0.5 Z M 107.49510385696037 0.5 L 144.42770771392074 0.5 L 144.42770771392074 3.5 L 151.42770771392074 0 L 144.42770771392074 -3.5 L 144.42770771392074 -0.5 L 107.49510385696037 -0.5 Z"/><text text-anchor="middle" pointer-events="none" font-size="8px" fill="#000000" x="84.71385385696037" y="3" transform="rotate(180 84.71385385696037 0)" font-family="sans-serif">ACTED_IN</text></g><g class="relationship" transform="translate(3.4732259988107614 -64.60107579782012) rotate(509.8965107665515)"><path class="outline" fill="#A5ABB6" stroke="none" d="M 25 0.5 L 67.80489225942324 0.5 L 67.80489225942324 -0.5 L 25 -0.5 Z M 113.36739225942324 0.5 L 156.17228451884648 0.5 L 156.17228451884648 3.5 L 163.17228451884648 0 L 156.17228451884648 -3.5 L 156.17228451884648 -0.5 L 113.36739225942324 -0.5 Z"/><text text-anchor="middle" pointer-events="none" font-size="8px" fill="#000000" x="90.58614225942324" y="3" transform="rotate(180 90.58614225942324 0)" font-family="sans-serif">ACTED_IN</text></g><g class="relationship" transform="translate(52.8586387602414 190.80640788856135) rotate(285.3282055899531)"><path class="outline" fill="#A5ABB6" stroke="none" d="M 25 0.5 L 48.51358783920365 0.5 L 48.51358783920365 -0.5 L 25 -0.5 Z M 94.07608783920365 0.5 L 117.5896756784073 0.5 L 117.5896756784073 3.5 L 124.5896756784073 0 L 117.5896756784073 -3.5 L 117.5896756784073 -0.5 L 94.07608783920365 -0.5 Z"/><text text-anchor="middle" pointer-events="none" font-size="8px" fill="#000000" x="71.29483783920365" y="3" font-family="sans-serif">ACTED_IN</text></g><g class="relationship" transform="translate(188.28658879243795 189.72512657959896) rotate(236.19203418502718)"><path class="outline" fill="#A5ABB6" stroke="none" d="M 25 0.5 L 59.88187076080153 0.5 L 59.88187076080153 -0.5 L 25 -0.5 Z M 105.44437076080153 0.5 L 140.32624152160307 0.5 L 140.32624152160307 3.5 L 147.32624152160307 0 L 140.32624152160307 -3.5 L 140.32624152160307 -0.5 L 105.44437076080153 -0.5 Z"/><text text-anchor="middle" pointer-events="none" font-size="8px" fill="#000000" x="82.66312076080153" y="3" transform="rotate(180 82.66312076080153 0)" font-family="sans-serif">ACTED_IN</text></g><g class="relationship" transform="translate(213.527517661595 47.61122455303244) rotate(180.50764149002828)"><path class="outline" fill="#A5ABB6" stroke="none" d="M 25 0.5 L 34.283711980081755 0.5 L 34.283711980081755 -0.5 L 25 -0.5 Z M 79.84621198008176 0.5 L 89.12992396016351 0.5 L 89.12992396016351 3.5 L 96.12992396016351 0 L 89.12992396016351 -3.5 L 89.12992396016351 -0.5 L 79.84621198008176 -0.5 Z"/><text text-anchor="middle" pointer-events="none" font-size="8px" fill="#000000" x="57.064961980081755" y="3" transform="rotate(180 57.064961980081755 0)" font-family="sans-serif">ACTED_IN</text></g><g class="relationship" transform="translate(232.07671585058256 -214.11980154187273) rotate(523.556488084746)"><path class="outline" fill="#A5ABB6" stroke="none" d="M 25 0.5 L 46.22647905686789 0.5 L 46.22647905686789 -0.5 L 25 -0.5 Z M 91.78897905686789 0.5 L 113.01545811373578 0.5 L 113.01545811373578 3.5 L 120.01545811373578 0 L 113.01545811373578 -3.5 L 113.01545811373578 -0.5 L 91.78897905686789 -0.5 Z"/><text text-anchor="middle" pointer-events="none" font-size="8px" fill="#000000" x="69.00772905686789" y="3" transform="rotate(180 69.00772905686789 0)" font-family="sans-serif">ACTED_IN</text></g><g class="relationship" transform="translate(194.30703977332956 -325.1052979907523) rotate(483.679075167788)"><path class="outline" fill="#A5ABB6" stroke="none" d="M 25 0.5 L 65.06873745703847 0.5 L 65.06873745703847 -0.5 L 25 -0.5 Z M 110.63123745703847 0.5 L 150.69997491407693 0.5 L 150.69997491407693 3.5 L 157.69997491407693 0 L 150.69997491407693 -3.5 L 150.69997491407693 -0.5 L 110.63123745703847 -0.5 Z"/><text text-anchor="middle" pointer-events="none" font-size="8px" fill="#000000" x="87.84998745703847" y="3" transform="rotate(180 87.84998745703847 0)" font-family="sans-serif">ACTED_IN</text></g><g class="relationship" transform="translate(80.85491948451491 -369.24845261618145) rotate(446.45961363652987)"><path class="outline" fill="#A5ABB6" stroke="none" d="M 25 0.5 L 71.99539051838138 0.5 L 71.99539051838138 -0.5 L 25 -0.5 Z M 117.55789051838138 0.5 L 164.55328103676277 0.5 L 164.55328103676277 3.5 L 171.55328103676277 0 L 164.55328103676277 -3.5 L 164.55328103676277 -0.5 L 117.55789051838138 -0.5 Z"/><text text-anchor="middle" pointer-events="none" font-size="8px" fill="#000000" x="94.77664051838138" y="3" font-family="sans-serif">ACTED_IN</text></g><g class="relationship" transform="translate(-5.807537985918799 -327.3827308009593) rotate(417.3702034725915)"><path class="outline" fill="#A5ABB6" stroke="none" d="M 25 0.5 L 65.33449077322327 0.5 L 65.33449077322327 -0.5 L 25 -0.5 Z M 110.89699077322327 0.5 L 151.23148154644653 0.5 L 151.23148154644653 3.5 L 158.23148154644653 0 L 151.23148154644653 -3.5 L 151.23148154644653 -0.5 L 110.89699077322327 -0.5 Z"/><text text-anchor="middle" pointer-events="none" font-size="8px" fill="#000000" x="88.11574077322327" y="3" font-family="sans-serif">ACTED_IN</text></g><g class="relationship" transform="translate(-419.90781872367745 -206.0736926053919) rotate(364.4007924406673)"><path class="outline" fill="#A5ABB6" stroke="none" d="M 25 0.5 L 100.35741122952335 0.5 L 100.35741122952335 -0.5 L 25 -0.5 Z M 145.91991122952334 0.5 L 221.2773224590467 0.5 L 221.2773224590467 3.5 L 228.2773224590467 0 L 221.2773224590467 -3.5 L 221.2773224590467 -0.5 L 145.91991122952334 -0.5 Z"/><text text-anchor="middle" pointer-events="none" font-size="8px" fill="#000000" x="123.13866122952335" y="3" font-family="sans-serif">ACTED_IN</text></g><g class="relationship" transform="translate(-419.90781872367745 -206.0736926053919) rotate(385.3902179871609)"><path class="outline" fill="#A5ABB6" stroke="none" d="M 25 0.5 L 111.26862711778537 0.5 L 111.26862711778537 -0.5 L 25 -0.5 Z M 156.83112711778537 0.5 L 243.09975423557074 0.5 L 243.09975423557074 3.5 L 250.09975423557074 0 L 243.09975423557074 -3.5 L 243.09975423557074 -0.5 L 156.83112711778537 -0.5 Z"/><text text-anchor="middle" pointer-events="none" font-size="8px" fill="#000000" x="134.04987711778537" y="3" font-family="sans-serif">ACTED_IN</text></g><g class="relationship" transform="translate(-419.90781872367745 -206.0736926053919) rotate(402.14747146978283)"><path class="outline" fill="#A5ABB6" stroke="none" d="M 25 0.5 L 149.45533128811715 0.5 L 149.45533128811715 -0.5 L 25 -0.5 Z M 195.01783128811715 0.5 L 319.4731625762343 0.5 L 319.4731625762343 3.5 L 326.4731625762343 0 L 319.4731625762343 -3.5 L 319.4731625762343 -0.5 L 195.01783128811715 -0.5 Z"/><text text-anchor="middle" pointer-events="none" font-size="8px" fill="#000000" x="172.23658128811715" y="3" font-family="sans-serif">ACTED_IN</text></g><g class="relationship" transform="translate(-479.7818601575214 -10.92351123371212) rotate(330.6439325962851)"><path class="outline" fill="#A5ABB6" stroke="none" d="M 25 0.5 L 152.93411320171492 0.5 L 152.93411320171492 -0.5 L 25 -0.5 Z M 198.49661320171492 0.5 L 326.43072640342984 0.5 L 326.43072640342984 3.5 L 333.43072640342984 0 L 326.43072640342984 -3.5 L 326.43072640342984 -0.5 L 198.49661320171492 -0.5 Z"/><text text-anchor="middle" pointer-events="none" font-size="8px" fill="#000000" x="175.71536320171492" y="3" font-family="sans-serif">ACTED_IN</text></g><g class="relationship" transform="translate(-479.7818601575214 -10.92351123371212) rotate(345.9476211455683)"><path class="outline" fill="#A5ABB6" stroke="none" d="M 25 0.5 L 132.67644291047353 0.5 L 132.67644291047353 -0.5 L 25 -0.5 Z M 178.23894291047353 0.5 L 285.91538582094705 0.5 L 285.91538582094705 3.5 L 292.91538582094705 0 L 285.91538582094705 -3.5 L 285.91538582094705 -0.5 L 178.23894291047353 -0.5 Z"/><text text-anchor="middle" pointer-events="none" font-size="8px" fill="#000000" x="155.45769291047353" y="3" font-family="sans-serif">ACTED_IN</text></g><g class="relationship" transform="translate(-479.7818601575214 -10.92351123371212) rotate(367.2385084741433)"><path class="outline" fill="#A5ABB6" stroke="none" d="M 25 0.5 L 135.23767403908965 0.5 L 135.23767403908965 -0.5 L 25 -0.5 Z M 180.80017403908965 0.5 L 291.0378480781793 0.5 L 291.0378480781793 3.5 L 298.0378480781793 0 L 291.0378480781793 -3.5 L 291.0378480781793 -0.5 L 180.80017403908965 -0.5 Z"/><text text-anchor="middle" pointer-events="none" font-size="8px" fill="#000000" x="158.01892403908965" y="3" font-family="sans-serif">ACTED_IN</text></g><g class="relationship" transform="translate(-479.87571970556917 -100.36592860002355) rotate(344.56649138062835)"><path class="outline" fill="#A5ABB6" stroke="none" d="M 25 0.5 L 135.8131259343473 0.5 L 135.8131259343473 -0.5 L 25 -0.5 Z M 181.3756259343473 0.5 L 292.1887518686946 0.5 L 292.1887518686946 3.5 L 299.1887518686946 0 L 292.1887518686946 -3.5 L 292.1887518686946 -0.5 L 181.3756259343473 -0.5 Z"/><text text-anchor="middle" pointer-events="none" font-size="8px" fill="#000000" x="158.5943759343473" y="3" font-family="sans-serif">ACTED_IN</text></g><g class="relationship" transform="translate(-479.87571970556917 -100.36592860002355) rotate(362.2739104805619)"><path class="outline" fill="#A5ABB6" stroke="none" d="M 25 0.5 L 128.08798584524584 0.5 L 128.08798584524584 -0.5 L 25 -0.5 Z M 173.65048584524584 0.5 L 276.7384716904917 0.5 L 276.7384716904917 3.5 L 283.7384716904917 0 L 276.7384716904917 -3.5 L 276.7384716904917 -0.5 L 173.65048584524584 -0.5 Z"/><text text-anchor="middle" pointer-events="none" font-size="8px" fill="#000000" x="150.86923584524584" y="3" font-family="sans-serif">ACTED_IN</text></g><g class="relationship" transform="translate(-479.87571970556917 -100.36592860002355) rotate(382.09699522385336)"><path class="outline" fill="#A5ABB6" stroke="none" d="M 25 0.5 L 146.7033386107241 0.5 L 146.7033386107241 -0.5 L 25 -0.5 Z M 192.2658386107241 0.5 L 313.9691772214482 0.5 L 313.9691772214482 3.5 L 320.9691772214482 0 L 313.9691772214482 -3.5 L 313.9691772214482 -0.5 L 192.2658386107241 -0.5 Z"/><text text-anchor="middle" pointer-events="none" font-size="8px" fill="#000000" x="169.4845886107241" y="3" font-family="sans-serif">ACTED_IN</text></g><g class="relationship" transform="translate(-396.8042045971756 81.05595860620085) rotate(347.8160237723529)"><path class="outline" fill="#A5ABB6" stroke="none" d="M 25 0.5 L 95.19790249412125 0.5 L 95.19790249412125 -0.5 L 25 -0.5 Z M 140.76040249412125 0.5 L 210.9583049882425 0.5 L 210.9583049882425 3.5 L 217.9583049882425 0 L 210.9583049882425 -3.5 L 210.9583049882425 -0.5 L 140.76040249412125 -0.5 Z"/><text text-anchor="middle" pointer-events="none" font-size="8px" fill="#000000" x="117.97915249412125" y="3" font-family="sans-serif">ACTED_IN</text></g></g><g class="layer nodes"><g class="node" aria-label="graph-node105" transform="translate(92.40234801216945,46.538025599959866)" style="touch-action: none; -webkit-tap-highlight-color: rgba(0, 0, 0, 0);"><circle class="outline" cx="0" cy="0" r="25" fill="#C990C0" stroke="#b261a5" stroke-width="2px"/><text class="caption" text-anchor="middle" pointer-events="none" x="0" y="0" font-size="10px" fill="#FFFFFF" font-family="sans-serif"> Cloud</text><text class="caption" text-anchor="middle" pointer-events="none" x="0" y="10" font-size="10px" fill="#FFFFFF" font-family="sans-serif"> Atlas</text></g><g class="node" aria-label="graph-node4" transform="translate(3.4732259988107614,-64.60107579782012)" style="touch-action: none; -webkit-tap-highlight-color: rgba(0, 0, 0, 0);"><circle class="outline" cx="0" cy="0" r="25" fill="#F79767" stroke="#f36924" stroke-width="2px"/><text class="caption" text-anchor="middle" pointer-events="none" x="0" y="0" font-size="10px" fill="#FFFFFF" font-family="sans-serif"> Hugo</text><text class="caption" text-anchor="middle" pointer-events="none" x="0" y="10" font-size="10px" fill="#FFFFFF" font-family="sans-serif"> Weavi…</text></g><g class="node" aria-label="graph-node71" transform="translate(52.8586387602414,190.80640788856135)" style="touch-action: none; -webkit-tap-highlight-color: rgba(0, 0, 0, 0);"><circle class="outline" cx="0" cy="0" r="25" fill="#F79767" stroke="#f36924" stroke-width="2px"/><text class="caption" text-anchor="middle" pointer-events="none" x="0" y="0" font-size="10px" fill="#FFFFFF" font-family="sans-serif"> Tom</text><text class="caption" text-anchor="middle" pointer-events="none" x="0" y="10" font-size="10px" fill="#FFFFFF" font-family="sans-serif"> Hanks</text></g><g class="node" aria-label="graph-node107" transform="translate(188.28658879243795,189.72512657959896)" style="touch-action: none; -webkit-tap-highlight-color: rgba(0, 0, 0, 0);"><circle class="outline" cx="0" cy="0" r="25" fill="#F79767" stroke="#f36924" stroke-width="2px"/><text class="caption" text-anchor="middle" pointer-events="none" x="0" y="0" font-size="10px" fill="#FFFFFF" font-family="sans-serif"> Jim</text><text class="caption" text-anchor="middle" pointer-events="none" x="0" y="10" font-size="10px" fill="#FFFFFF" font-family="sans-serif"> Broad…</text></g><g class="node" aria-label="graph-node106" transform="translate(213.527517661595,47.61122455303244)" style="touch-action: none; -webkit-tap-highlight-color: rgba(0, 0, 0, 0);"><circle class="outline" cx="0" cy="0" r="25" fill="#F79767" stroke="#f36924" stroke-width="2px"/><text class="caption" text-anchor="middle" pointer-events="none" x="0" y="0" font-size="10px" fill="#FFFFFF" font-family="sans-serif"> Halle</text><text class="caption" text-anchor="middle" pointer-events="none" x="0" y="10" font-size="10px" fill="#FFFFFF" font-family="sans-serif"> Berry</text></g><g class="node" aria-label="graph-node116" transform="translate(92.9924943219559,-173.0702898064993)" style="touch-action: none; -webkit-tap-highlight-color: rgba(0, 0, 0, 0);"><circle class="outline" cx="0" cy="0" r="25" fill="#C990C0" stroke="#b261a5" stroke-width="2px"/><text class="caption" text-anchor="middle" pointer-events="none" x="0" y="0" font-size="10px" fill="#FFFFFF" font-family="sans-serif"> V for</text><text class="caption" text-anchor="middle" pointer-events="none" x="0" y="10" font-size="10px" fill="#FFFFFF" font-family="sans-serif"> Vende…</text></g><g class="node" aria-label="graph-node119" transform="translate(232.07671585058256,-214.11980154187273)" style="touch-action: none; -webkit-tap-highlight-color: rgba(0, 0, 0, 0);"><circle class="outline" cx="0" cy="0" r="25" fill="#F79767" stroke="#f36924" stroke-width="2px"/><text class="caption" text-anchor="middle" pointer-events="none" x="0" y="5" font-size="10px" fill="#FFFFFF" font-family="sans-serif"> John Hurt</text></g><g class="node" aria-label="graph-node118" transform="translate(194.30703977332956,-325.1052979907523)" style="touch-action: none; -webkit-tap-highlight-color: rgba(0, 0, 0, 0);"><circle class="outline" cx="0" cy="0" r="25" fill="#F79767" stroke="#f36924" stroke-width="2px"/><text class="caption" text-anchor="middle" pointer-events="none" x="0" y="0" font-size="10px" fill="#FFFFFF" font-family="sans-serif"> Stephen</text><text class="caption" text-anchor="middle" pointer-events="none" x="0" y="10" font-size="10px" fill="#FFFFFF" font-family="sans-serif"> Rea</text></g><g class="node" aria-label="graph-node117" transform="translate(80.85491948451491,-369.24845261618145)" style="touch-action: none; -webkit-tap-highlight-color: rgba(0, 0, 0, 0);"><circle class="outline" cx="0" cy="0" r="25" fill="#F79767" stroke="#f36924" stroke-width="2px"/><text class="caption" text-anchor="middle" pointer-events="none" x="0" y="0" font-size="10px" fill="#FFFFFF" font-family="sans-serif"> Natalie</text><text class="caption" text-anchor="middle" pointer-events="none" x="0" y="10" font-size="10px" fill="#FFFFFF" font-family="sans-serif"> Portm…</text></g><g class="node" aria-label="graph-node120" transform="translate(-5.807537985918799,-327.3827308009593)" style="touch-action: none; -webkit-tap-highlight-color: rgba(0, 0, 0, 0);"><circle class="outline" cx="0" cy="0" r="25" fill="#F79767" stroke="#f36924" stroke-width="2px"/><text class="caption" text-anchor="middle" pointer-events="none" x="0" y="5" font-size="10px" fill="#FFFFFF" font-family="sans-serif"> Ben Miles</text></g><g class="node" aria-label="graph-node10" transform="translate(-167.37723606030886,-186.63900990349288)" style="touch-action: none; -webkit-tap-highlight-color: rgba(0, 0, 0, 0);"><circle class="outline" cx="0" cy="0" r="25" fill="#C990C0" stroke="#b261a5" stroke-width="2px"/><text class="caption" text-anchor="middle" pointer-events="none" x="0" y="-5" font-size="10px" fill="#FFFFFF" font-family="sans-serif"> The</text><text class="caption" text-anchor="middle" pointer-events="none" x="0" y="5" font-size="10px" fill="#FFFFFF" font-family="sans-serif"> Matrix</text><text class="caption" text-anchor="middle" pointer-events="none" x="0" y="15" font-size="10px" fill="#FFFFFF" font-family="sans-serif"> Rev…</text></g><g class="node" aria-label="graph-node3" transform="translate(-419.90781872367745,-206.0736926053919)" style="touch-action: none; -webkit-tap-highlight-color: rgba(0, 0, 0, 0);"><circle class="outline" cx="0" cy="0" r="25" fill="#F79767" stroke="#f36924" stroke-width="2px"/><text class="caption" text-anchor="middle" pointer-events="none" x="0" y="0" font-size="10px" fill="#FFFFFF" font-family="sans-serif"> Laurence</text><text class="caption" text-anchor="middle" pointer-events="none" x="0" y="10" font-size="10px" fill="#FFFFFF" font-family="sans-serif"> Fishb…</text></g><g class="node" aria-label="graph-node2" transform="translate(-479.7818601575214,-10.92351123371212)" style="touch-action: none; -webkit-tap-highlight-color: rgba(0, 0, 0, 0);"><circle class="outline" cx="0" cy="0" r="25" fill="#F79767" stroke="#f36924" stroke-width="2px"/><text class="caption" text-anchor="middle" pointer-events="none" x="0" y="5" font-size="10px" fill="#FFFFFF" font-family="sans-serif"> Carrie-A…</text></g><g class="node" aria-label="graph-node1" transform="translate(-479.87571970556917,-100.36592860002355)" style="touch-action: none; -webkit-tap-highlight-color: rgba(0, 0, 0, 0);"><circle class="outline" cx="0" cy="0" r="25" fill="#F79767" stroke="#f36924" stroke-width="2px"/><text class="caption" text-anchor="middle" pointer-events="none" x="0" y="0" font-size="10px" fill="#FFFFFF" font-family="sans-serif"> Keanu</text><text class="caption" text-anchor="middle" pointer-events="none" x="0" y="10" font-size="10px" fill="#FFFFFF" font-family="sans-serif"> Reeves</text></g><g class="node" aria-label="graph-node9" transform="translate(-171.38035935198474,-88.1161717823302)" style="touch-action: none; -webkit-tap-highlight-color: rgba(0, 0, 0, 0);"><circle class="outline" cx="0" cy="0" r="25" fill="#C990C0" stroke="#b261a5" stroke-width="2px"/><text class="caption" text-anchor="middle" pointer-events="none" x="0" y="-5" font-size="10px" fill="#FFFFFF" font-family="sans-serif"> The</text><text class="caption" text-anchor="middle" pointer-events="none" x="0" y="5" font-size="10px" fill="#FFFFFF" font-family="sans-serif"> Matrix</text><text class="caption" text-anchor="middle" pointer-events="none" x="0" y="15" font-size="10px" fill="#FFFFFF" font-family="sans-serif"> Rel…</text></g><g class="node" aria-label="graph-node0" transform="translate(-159.318545934976,29.779259292174515)" style="touch-action: none; -webkit-tap-highlight-color: rgba(0, 0, 0, 0);"><circle class="outline" cx="0" cy="0" r="25" fill="#C990C0" stroke="#b261a5" stroke-width="2px"/><text class="caption" text-anchor="middle" pointer-events="none" x="0" y="0" font-size="10px" fill="#FFFFFF" font-family="sans-serif"> The</text><text class="caption" text-anchor="middle" pointer-events="none" x="0" y="10" font-size="10px" fill="#FFFFFF" font-family="sans-serif"> Matrix</text></g><g class="node" aria-label="graph-node8" transform="translate(-396.8042045971756,81.05595860620085)" style="touch-action: none; -webkit-tap-highlight-color: rgba(0, 0, 0, 0);"><circle class="outline" cx="0" cy="0" r="25" fill="#F79767" stroke="#f36924" stroke-width="2px"/><text class="caption" text-anchor="middle" pointer-events="none" x="0" y="0" font-size="10px" fill="#FFFFFF" font-family="sans-serif"> Emil</text><text class="caption" text-anchor="middle" pointer-events="none" x="0" y="10" font-size="10px" fill="#FFFFFF" font-family="sans-serif"> Eifrem</text></g></g></svg>