<svg xmlns="http://www.w3.org/2000/svg" width="575.3768920898438" height="508.57586669921875" viewBox="-392.7858581542969 -463.2989807128906 575.3768920898438 508.57586669921875"><title>Neo4j Graph Visualization</title><desc>Created using Neo4j (http://www.neo4j.com/)</desc><g class="layer relationships"><g class="relationship" transform="translate(148.56886743123178 -175.27577211176583) rotate(532.9953590735214)"><path class="outline" fill="#A5ABB6" stroke="none" d="M 25 0.5 L 105.5319715482126 0.5 L 105.5319715482126 -0.5 L 25 -0.5 Z M 151.0944715482126 0.5 L 231.6264430964252 0.5 L 231.6264430964252 3.5 L 238.6264430964252 0 L 231.6264430964252 -3.5 L 231.6264430964252 -0.5 L 151.0944715482126 -0.5 Z"/><text text-anchor="middle" pointer-events="none" font-size="8px" fill="#000000" x="128.3132215482126" y="3" transform="rotate(180 128.3132215482126 0)" font-family="sans-serif">ACTED_IN</text></g><g class="relationship" transform="translate(-363.7858541767706 -149.72523221802157) rotate(361.5077498115452)"><path class="outline" fill="#A5ABB6" stroke="none" d="M 25 0.5 L 104.00465148351287 0.5 L 104.00465148351287 -0.5 L 25 -0.5 Z M 139.77808898351287 0.5 L 218.78274046702575 0.5 L 218.78274046702575 3.5 L 225.78274046702575 0 L 218.78274046702575 -3.5 L 218.78274046702575 -0.5 L 139.77808898351287 -0.5 Z"/><text text-anchor="middle" pointer-events="none" font-size="8px" fill="#000000" x="121.89137023351287" y="3" font-family="sans-serif">WROTE</text></g><g class="relationship" transform="translate(-352.2139580769947 -286.91310337870556) rotate(391.0187105873657)"><path class="outline" fill="#A5ABB6" stroke="none" d="M 25 0.5 L 118.12569575677614 0.5 L 118.12569575677614 -0.5 L 25 -0.5 Z M 153.89913325677614 0.5 L 247.02482901355228 0.5 L 247.02482901355228 3.5 L 254.02482901355228 0 L 247.02482901355228 -3.5 L 247.02482901355228 -0.5 L 153.89913325677614 -0.5 Z"/><text text-anchor="middle" pointer-events="none" font-size="8px" fill="#000000" x="136.01241450677614" y="3" font-family="sans-serif">WROTE</text></g><g class="relationship" transform="translate(-138.62438464494232 11.5267764438305) rotate(279.375385368245)"><path class="outline" fill="#A5ABB6" stroke="none" d="M 25 0.5 L 52.0923321331891 0.5 L 52.0923321331891 -0.5 L 25 -0.5 Z M 97.6548321331891 0.5 L 124.7471642663782 0.5 L 124.7471642663782 3.5 L 131.7471642663782 0 L 124.7471642663782 -3.5 L 124.7471642663782 -0.5 L 97.6548321331891 -0.5 Z"/><text text-anchor="middle" pointer-events="none" font-size="8px" fill="#000000" x="74.8735821331891" y="3" font-family="sans-serif">ACTED_IN</text></g><g class="relationship" transform="translate(146.84206056869886 -46.96276011337778) rotate(200.30234010934703)"><path class="outline" fill="#A5ABB6" stroke="none" d="M 25 0.5 L 112.29375566935596 0.5 L 112.29375566935596 -0.5 L 25 -0.5 Z M 157.85625566935596 0.5 L 245.15001133871192 0.5 L 245.15001133871192 3.5 L 252.15001133871192 0 L 245.15001133871192 -3.5 L 245.15001133871192 -0.5 L 157.85625566935596 -0.5 Z"/><text text-anchor="middle" pointer-events="none" font-size="8px" fill="#000000" x="135.07500566935596" y="3" transform="rotate(180 135.07500566935596 0)" font-family="sans-serif">ACTED_IN</text></g><g class="relationship" transform="translate(-282.20039053379105 5.154215238847399) rotate(318.7548021032093)"><path class="outline" fill="#A5ABB6" stroke="none" d="M 25 0.5 L 86.17490059387234 0.5 L 86.17490059387234 -0.5 L 25 -0.5 Z M 131.73740059387234 0.5 L 192.91230118774467 0.5 L 192.91230118774467 3.5 L 199.91230118774467 0 L 192.91230118774467 -3.5 L 192.91230118774467 -0.5 L 131.73740059387234 -0.5 Z"/><text text-anchor="middle" pointer-events="none" font-size="8px" fill="#000000" x="108.95615059387234" y="3" font-family="sans-serif">ACTED_IN</text></g><g class="relationship" transform="translate(-210.06027630059492 8.985616599700805) rotate(302.51718913871696)"><path class="outline" fill="#A5ABB6" stroke="none" d="M 25 0.5 L 63.91488523357671 0.5 L 63.91488523357671 -0.5 L 25 -0.5 Z M 109.47738523357671 0.5 L 148.39227046715342 0.5 L 148.39227046715342 3.5 L 155.39227046715342 0 L 148.39227046715342 -3.5 L 148.39227046715342 -0.5 L 109.47738523357671 -0.5 Z"/><text text-anchor="middle" pointer-events="none" font-size="8px" fill="#000000" x="86.69613523357671" y="3" font-family="sans-serif">ACTED_IN</text></g><g class="relationship" transform="translate(146.9371322519594 -239.74443777926223) rotate(519.6165251875873)"><path class="outline" fill="#A5ABB6" stroke="none" d="M 25 0.5 L 112.41724141729745 0.5 L 112.41724141729745 -0.5 L 25 -0.5 Z M 157.97974141729745 0.5 L 245.3969828345949 0.5 L 245.3969828345949 3.5 L 252.3969828345949 0 L 245.3969828345949 -3.5 L 245.3969828345949 -0.5 L 157.97974141729745 -0.5 Z"/><text text-anchor="middle" pointer-events="none" font-size="8px" fill="#000000" x="135.19849141729745" y="3" transform="rotate(180 135.19849141729745 0)" font-family="sans-serif">ACTED_IN</text></g><g class="relationship" transform="translate(4.829850113871657 16.27687255548119) rotate(233.50756584220318)"><path class="outline" fill="#A5ABB6" stroke="none" d="M 25 0.5 L 72.85822623262182 0.5 L 72.85822623262182 -0.5 L 25 -0.5 Z M 118.42072623262182 0.5 L 166.27895246524363 0.5 L 166.27895246524363 3.5 L 173.27895246524363 0 L 166.27895246524363 -3.5 L 166.27895246524363 -0.5 L 118.42072623262182 -0.5 Z"/><text text-anchor="middle" pointer-events="none" font-size="8px" fill="#000000" x="95.63947623262182" y="3" transform="rotate(180 95.63947623262182 0)" font-family="sans-serif">ACTED_IN</text></g><g class="relationship" transform="translate(73.85954546053057 14.009106418904992) rotate(220.04788832182635)"><path class="outline" fill="#A5ABB6" stroke="none" d="M 25 0.5 L 95.82704160856416 0.5 L 95.82704160856416 -0.5 L 25 -0.5 Z M 141.38954160856417 0.5 L 212.21658321712832 0.5 L 212.21658321712832 3.5 L 219.21658321712832 0 L 212.21658321712832 -3.5 L 212.21658321712832 -0.5 L 141.38954160856417 -0.5 Z"/><text text-anchor="middle" pointer-events="none" font-size="8px" fill="#000000" x="118.60829160856416" y="3" transform="rotate(180 118.60829160856416 0)" font-family="sans-serif">ACTED_IN</text></g><g class="relationship" transform="translate(-362.94833448535974 -2.2618635967151732) rotate(330.586640958717)"><path class="outline" fill="#A5ABB6" stroke="none" d="M 25 0.5 L 117.13430855299609 0.5 L 117.13430855299609 -0.5 L 25 -0.5 Z M 162.6968085529961 0.5 L 254.83111710599218 0.5 L 254.83111710599218 3.5 L 261.8311171059922 0 L 254.83111710599218 -3.5 L 254.83111710599218 -0.5 L 162.6968085529961 -0.5 Z"/><text text-anchor="middle" pointer-events="none" font-size="8px" fill="#000000" x="139.9155585529961" y="3" font-family="sans-serif">ACTED_IN</text></g><g class="relationship" transform="translate(139.9280006944012 13.714109812726264) rotate(211.79393705876805)"><path class="outline" fill="#A5ABB6" stroke="none" d="M 25 0.5 L 122.56186024123107 0.5 L 122.56186024123107 -0.5 L 25 -0.5 Z M 168.12436024123107 0.5 L 265.68622048246215 0.5 L 265.68622048246215 3.5 L 272.68622048246215 0 L 265.68622048246215 -3.5 L 265.68622048246215 -0.5 L 168.12436024123107 -0.5 Z"/><text text-anchor="middle" pointer-events="none" font-size="8px" fill="#000000" x="145.34311024123107" y="3" transform="rotate(180 145.34311024123107 0)" font-family="sans-serif">ACTED_IN</text></g><g class="relationship" transform="translate(147.1683917893153 -111.43706076681397) rotate(186.94226602555761)"><path class="outline" fill="#A5ABB6" stroke="none" d="M 25 0.5 L 104.80901127892918 0.5 L 104.80901127892918 -0.5 L 25 -0.5 Z M 150.37151127892918 0.5 L 230.18052255785835 0.5 L 230.18052255785835 3.5 L 237.18052255785835 0 L 230.18052255785835 -3.5 L 230.18052255785835 -0.5 L 150.37151127892918 -0.5 Z"/><text text-anchor="middle" pointer-events="none" font-size="8px" fill="#000000" x="127.59026127892918" y="3" transform="rotate(180 127.59026127892918 0)" font-family="sans-serif">ACTED_IN</text></g><g class="relationship" transform="translate(153.5910439725497 -363.1179423290802) rotate(500.4799852196292)"><path class="outline" fill="#A5ABB6" stroke="none" d="M 25 0.5 L 146.5734144231935 0.5 L 146.5734144231935 -0.5 L 25 -0.5 Z M 192.1359144231935 0.5 L 313.709328846387 0.5 L 313.709328846387 3.5 L 320.709328846387 0 L 313.709328846387 -3.5 L 313.709328846387 -0.5 L 192.1359144231935 -0.5 Z"/><text text-anchor="middle" pointer-events="none" font-size="8px" fill="#000000" x="169.3546644231935" y="3" transform="rotate(180 169.3546644231935 0)" font-family="sans-serif">ACTED_IN</text></g><g class="relationship" transform="translate(14.713931854706289 -434.2989875180208) rotate(473.6980414625083)"><path class="outline" fill="#A5ABB6" stroke="none" d="M 25 0.5 L 132.71182479209006 0.5 L 132.71182479209006 -0.5 L 25 -0.5 Z M 178.27432479209006 0.5 L 285.9861495841801 0.5 L 285.9861495841801 3.5 L 292.9861495841801 0 L 285.9861495841801 -3.5 L 285.9861495841801 -0.5 L 178.27432479209006 -0.5 Z"/><text text-anchor="middle" pointer-events="none" font-size="8px" fill="#000000" x="155.49307479209006" y="3" transform="rotate(180 155.49307479209006 0)" font-family="sans-serif">ACTED_IN</text></g><g class="relationship" transform="translate(-240.13928574268857 -424.69331797176955) rotate(425.71401490778317)"><path class="outline" fill="#A5ABB6" stroke="none" d="M 25 0.5 L 127.50642332034022 0.5 L 127.50642332034022 -0.5 L 25 -0.5 Z M 174.39704832034022 0.5 L 276.90347164068044 0.5 L 276.90347164068044 3.5 L 283.90347164068044 0 L 276.90347164068044 -3.5 L 276.90347164068044 -0.5 L 174.39704832034022 -0.5 Z"/><text text-anchor="middle" pointer-events="none" font-size="8px" fill="#000000" x="150.95173582034022" y="3" font-family="sans-serif">DIRECTED</text></g><g class="relationship" transform="translate(150.60751738562473 -426.72813288186603) rotate(492.91719460328386)"><path class="outline" fill="#A5ABB6" stroke="none" d="M 25 0.5 L 167.3460860695545 0.5 L 167.3460860695545 -0.5 L 25 -0.5 Z M 212.9085860695545 0.5 L 355.254672139109 0.5 L 355.254672139109 3.5 L 362.254672139109 0 L 355.254672139109 -3.5 L 355.254672139109 -0.5 L 212.9085860695545 -0.5 Z"/><text text-anchor="middle" pointer-events="none" font-size="8px" fill="#000000" x="190.1273360695545" y="3" transform="rotate(180 190.1273360695545 0)" font-family="sans-serif">ACTED_IN</text></g><g class="relationship" transform="translate(152.4772149803758 -300.4732816174201) rotate(509.3535547103635)"><path class="outline" fill="#A5ABB6" stroke="none" d="M 25 0.5 L 128.05919648861388 0.5 L 128.05919648861388 -0.5 L 25 -0.5 Z M 173.62169648861388 0.5 L 276.68089297722776 0.5 L 276.68089297722776 3.5 L 283.68089297722776 0 L 276.68089297722776 -3.5 L 276.68089297722776 -0.5 L 173.62169648861388 -0.5 Z"/><text text-anchor="middle" pointer-events="none" font-size="8px" fill="#000000" x="150.84044648861388" y="3" transform="rotate(180 150.84044648861388 0)" font-family="sans-serif">ACTED_IN</text></g><g class="relationship" transform="translate(-66.12768077652441 14.304841284272698) rotate(253.39000340170776)"><path class="outline" fill="#A5ABB6" stroke="none" d="M 25 0.5 L 55.862087232457384 0.5 L 55.862087232457384 -0.5 L 25 -0.5 Z M 101.42458723245738 0.5 L 132.28667446491477 0.5 L 132.28667446491477 3.5 L 139.28667446491477 0 L 132.28667446491477 -3.5 L 132.28667446491477 -0.5 L 101.42458723245738 -0.5 Z"/><text text-anchor="middle" pointer-events="none" font-size="8px" fill="#000000" x="78.64333723245738" y="3" transform="rotate(180 78.64333723245738 0)" font-family="sans-serif">ACTED_IN</text></g><g class="relationship" transform="translate(-49.79021378835117 -433.8885377480609) rotate(462.28182183834605)"><path class="outline" fill="#A5ABB6" stroke="none" d="M 25 0.5 L 122.50497422126014 0.5 L 122.50497422126014 -0.5 L 25 -0.5 Z M 168.06747422126014 0.5 L 265.5724484425203 0.5 L 265.5724484425203 3.5 L 272.5724484425203 0 L 265.5724484425203 -3.5 L 265.5724484425203 -0.5 L 168.06747422126014 -0.5 Z"/><text text-anchor="middle" pointer-events="none" font-size="8px" fill="#000000" x="145.28622422126014" y="3" transform="rotate(180 145.28622422126014 0)" font-family="sans-serif">ACTED_IN</text></g><g class="relationship" transform="translate(83.07842758468999 -431.8146587430832) rotate(484.19676374814594)"><path class="outline" fill="#A5ABB6" stroke="none" d="M 25 0.5 L 148.23438413013244 0.5 L 148.23438413013244 -0.5 L 25 -0.5 Z M 193.79688413013244 0.5 L 317.0312682602649 0.5 L 317.0312682602649 3.5 L 324.0312682602649 0 L 317.0312682602649 -3.5 L 317.0312682602649 -0.5 L 193.79688413013244 -0.5 Z"/><text text-anchor="middle" pointer-events="none" font-size="8px" fill="#000000" x="171.01563413013244" y="3" transform="rotate(180 171.01563413013244 0)" font-family="sans-serif">ACTED_IN</text></g><g class="relationship" transform="translate(-360.41578277485934 -217.41889678813214) rotate(376.71933669536736)"><path class="outline" fill="#A5ABB6" stroke="none" d="M 25 0.5 L 107.734753092038 0.5 L 107.734753092038 -0.5 L 25 -0.5 Z M 143.508190592038 0.5 L 226.242943684076 0.5 L 226.242943684076 3.5 L 233.242943684076 0 L 226.242943684076 -3.5 L 226.242943684076 -0.5 L 143.508190592038 -0.5 Z"/><text text-anchor="middle" pointer-events="none" font-size="8px" fill="#000000" x="125.621471842038" y="3" font-family="sans-serif">WROTE</text></g></g><g class="layer nodes"><g class="node" aria-label="graph-node187" transform="translate(-113.08994092789993,-143.1265962630463)" style="touch-action: none; -webkit-tap-highlight-color: rgba(0, 0, 0, 0);"><circle class="outline" cx="0" cy="0" r="25" fill="#C990C0" stroke="#b261a5" stroke-width="2px"/><text class="caption" text-anchor="middle" pointer-events="none" x="0" y="-5" font-size="10px" fill="#FFFFFF" font-family="sans-serif"> Captain</text><text class="caption" text-anchor="middle" pointer-events="none" x="0" y="5" font-size="10px" fill="#FFFFFF" font-family="sans-serif"> America:</text><text class="caption" text-anchor="middle" pointer-events="none" x="0" y="15" font-size="10px" fill="#FFFFFF" font-family="sans-serif"> Th</text></g><g class="node" aria-label="graph-node4" transform="translate(148.56886743123178,-175.27577211176583)" style="touch-action: none; -webkit-tap-highlight-color: rgba(0, 0, 0, 0);"><circle class="outline" cx="0" cy="0" r="25" fill="#F79767" stroke="#f36924" stroke-width="2px"/><text class="caption" text-anchor="middle" pointer-events="none" x="0" y="0" font-size="10px" fill="#FFFFFF" font-family="sans-serif"> Hugo</text><text class="caption" text-anchor="middle" pointer-events="none" x="0" y="10" font-size="10px" fill="#FFFFFF" font-family="sans-serif"> Weavi…</text></g><g class="node" aria-label="graph-node190" transform="translate(-363.7858541767706,-149.72523221802157)" style="touch-action: none; -webkit-tap-highlight-color: rgba(0, 0, 0, 0);"><circle class="outline" cx="0" cy="0" r="25" fill="#F79767" stroke="#f36924" stroke-width="2px"/><text class="caption" text-anchor="middle" pointer-events="none" x="0" y="0" font-size="10px" fill="#FFFFFF" font-family="sans-serif"> Stephen</text><text class="caption" text-anchor="middle" pointer-events="none" x="0" y="10" font-size="10px" fill="#FFFFFF" font-family="sans-serif"> McFe…</text></g><g class="node" aria-label="graph-node189" transform="translate(-352.2139580769947,-286.91310337870556)" style="touch-action: none; -webkit-tap-highlight-color: rgba(0, 0, 0, 0);"><circle class="outline" cx="0" cy="0" r="25" fill="#F79767" stroke="#f36924" stroke-width="2px"/><text class="caption" text-anchor="middle" pointer-events="none" x="0" y="5" font-size="10px" fill="#FFFFFF" font-family="sans-serif"> Christop…</text></g><g class="node" aria-label="graph-node200" transform="translate(-138.62438464494232,11.5267764438305)" style="touch-action: none; -webkit-tap-highlight-color: rgba(0, 0, 0, 0);"><circle class="outline" cx="0" cy="0" r="25" fill="#F79767" stroke="#f36924" stroke-width="2px"/><text class="caption" text-anchor="middle" pointer-events="none" x="0" y="0" font-size="10px" fill="#FFFFFF" font-family="sans-serif"> Neal</text><text class="caption" text-anchor="middle" pointer-events="none" x="0" y="10" font-size="10px" fill="#FFFFFF" font-family="sans-serif"> McDo…</text></g><g class="node" aria-label="graph-node197" transform="translate(146.84206056869886,-46.96276011337778)" style="touch-action: none; -webkit-tap-highlight-color: rgba(0, 0, 0, 0);"><circle class="outline" cx="0" cy="0" r="25" fill="#F79767" stroke="#f36924" stroke-width="2px"/><text class="caption" text-anchor="middle" pointer-events="none" x="0" y="0" font-size="10px" fill="#FFFFFF" font-family="sans-serif"> Richard</text><text class="caption" text-anchor="middle" pointer-events="none" x="0" y="10" font-size="10px" fill="#FFFFFF" font-family="sans-serif"> Armita…</text></g><g class="node" aria-label="graph-node194" transform="translate(-282.20039053379105,5.154215238847399)" style="touch-action: none; -webkit-tap-highlight-color: rgba(0, 0, 0, 0);"><circle class="outline" cx="0" cy="0" r="25" fill="#F79767" stroke="#f36924" stroke-width="2px"/><text class="caption" text-anchor="middle" pointer-events="none" x="0" y="0" font-size="10px" fill="#FFFFFF" font-family="sans-serif"> Sebastian</text><text class="caption" text-anchor="middle" pointer-events="none" x="0" y="10" font-size="10px" fill="#FFFFFF" font-family="sans-serif"> Stan</text></g><g class="node" aria-label="graph-node198" transform="translate(-210.06027630059492,8.985616599700805)" style="touch-action: none; -webkit-tap-highlight-color: rgba(0, 0, 0, 0);"><circle class="outline" cx="0" cy="0" r="25" fill="#F79767" stroke="#f36924" stroke-width="2px"/><text class="caption" text-anchor="middle" pointer-events="none" x="0" y="0" font-size="10px" fill="#FFFFFF" font-family="sans-serif"> Stanley</text><text class="caption" text-anchor="middle" pointer-events="none" x="0" y="10" font-size="10px" fill="#FFFFFF" font-family="sans-serif"> Tucci</text></g><g class="node" aria-label="graph-node206" transform="translate(146.9371322519594,-239.74443777926223)" style="touch-action: none; -webkit-tap-highlight-color: rgba(0, 0, 0, 0);"><circle class="outline" cx="0" cy="0" r="25" fill="#F79767" stroke="#f36924" stroke-width="2px"/><text class="caption" text-anchor="middle" pointer-events="none" x="0" y="0" font-size="10px" fill="#FFFFFF" font-family="sans-serif"> Michael</text><text class="caption" text-anchor="middle" pointer-events="none" x="0" y="10" font-size="10px" fill="#FFFFFF" font-family="sans-serif"> Brand…</text></g><g class="node" aria-label="graph-node203" transform="translate(4.829850113871657,16.27687255548119)" style="touch-action: none; -webkit-tap-highlight-color: rgba(0, 0, 0, 0);"><circle class="outline" cx="0" cy="0" r="25" fill="#F79767" stroke="#f36924" stroke-width="2px"/><text class="caption" text-anchor="middle" pointer-events="none" x="0" y="5" font-size="10px" fill="#FFFFFF" font-family="sans-serif"> JJ Feild</text></g><g class="node" aria-label="graph-node202" transform="translate(73.85954546053057,14.009106418904992)" style="touch-action: none; -webkit-tap-highlight-color: rgba(0, 0, 0, 0);"><circle class="outline" cx="0" cy="0" r="25" fill="#F79767" stroke="#f36924" stroke-width="2px"/><text class="caption" text-anchor="middle" pointer-events="none" x="0" y="0" font-size="10px" fill="#FFFFFF" font-family="sans-serif"> Kenneth</text><text class="caption" text-anchor="middle" pointer-events="none" x="0" y="10" font-size="10px" fill="#FFFFFF" font-family="sans-serif"> Choi</text></g><g class="node" aria-label="graph-node195" transform="translate(-362.94833448535974,-2.2618635967151732)" style="touch-action: none; -webkit-tap-highlight-color: rgba(0, 0, 0, 0);"><circle class="outline" cx="0" cy="0" r="25" fill="#F79767" stroke="#f36924" stroke-width="2px"/><text class="caption" text-anchor="middle" pointer-events="none" x="0" y="0" font-size="10px" fill="#FFFFFF" font-family="sans-serif"> Tommy</text><text class="caption" text-anchor="middle" pointer-events="none" x="0" y="10" font-size="10px" fill="#FFFFFF" font-family="sans-serif"> J…</text></g><g class="node" aria-label="graph-node191" transform="translate(139.9280006944012,13.714109812726264)" style="touch-action: none; -webkit-tap-highlight-color: rgba(0, 0, 0, 0);"><circle class="outline" cx="0" cy="0" r="25" fill="#F79767" stroke="#f36924" stroke-width="2px"/><text class="caption" text-anchor="middle" pointer-events="none" x="0" y="0" font-size="10px" fill="#FFFFFF" font-family="sans-serif"> Chris</text><text class="caption" text-anchor="middle" pointer-events="none" x="0" y="10" font-size="10px" fill="#FFFFFF" font-family="sans-serif"> Evans</text></g><g class="node" aria-label="graph-node204" transform="translate(147.1683917893153,-111.43706076681397)" style="touch-action: none; -webkit-tap-highlight-color: rgba(0, 0, 0, 0);"><circle class="outline" cx="0" cy="0" r="25" fill="#F79767" stroke="#f36924" stroke-width="2px"/><text class="caption" text-anchor="middle" pointer-events="none" x="0" y="0" font-size="10px" fill="#FFFFFF" font-family="sans-serif"> Bruno</text><text class="caption" text-anchor="middle" pointer-events="none" x="0" y="10" font-size="10px" fill="#FFFFFF" font-family="sans-serif"> Ricci</text></g><g class="node" aria-label="graph-node193" transform="translate(153.5910439725497,-363.1179423290802)" style="touch-action: none; -webkit-tap-highlight-color: rgba(0, 0, 0, 0);"><circle class="outline" cx="0" cy="0" r="25" fill="#F79767" stroke="#f36924" stroke-width="2px"/><text class="caption" text-anchor="middle" pointer-events="none" x="0" y="0" font-size="10px" fill="#FFFFFF" font-family="sans-serif"> Hayley</text><text class="caption" text-anchor="middle" pointer-events="none" x="0" y="10" font-size="10px" fill="#FFFFFF" font-family="sans-serif"> Atwell</text></g><g class="node" aria-label="graph-node196" transform="translate(14.713931854706289,-434.2989875180208)" style="touch-action: none; -webkit-tap-highlight-color: rgba(0, 0, 0, 0);"><circle class="outline" cx="0" cy="0" r="25" fill="#F79767" stroke="#f36924" stroke-width="2px"/><text class="caption" text-anchor="middle" pointer-events="none" x="0" y="0" font-size="10px" fill="#FFFFFF" font-family="sans-serif"> Dominic</text><text class="caption" text-anchor="middle" pointer-events="none" x="0" y="10" font-size="10px" fill="#FFFFFF" font-family="sans-serif"> Cooper</text></g><g class="node" aria-label="graph-node188" transform="translate(-240.13928574268857,-424.69331797176955)" style="touch-action: none; -webkit-tap-highlight-color: rgba(0, 0, 0, 0);"><circle class="outline" cx="0" cy="0" r="25" fill="#F79767" stroke="#f36924" stroke-width="2px"/><text class="caption" text-anchor="middle" pointer-events="none" x="0" y="0" font-size="10px" fill="#FFFFFF" font-family="sans-serif"> Joe</text><text class="caption" text-anchor="middle" pointer-events="none" x="0" y="10" font-size="10px" fill="#FFFFFF" font-family="sans-serif"> Johnst…</text></g><g class="node" aria-label="graph-node199" transform="translate(150.60751738562473,-426.72813288186603)" style="touch-action: none; -webkit-tap-highlight-color: rgba(0, 0, 0, 0);"><circle class="outline" cx="0" cy="0" r="25" fill="#F79767" stroke="#f36924" stroke-width="2px"/><text class="caption" text-anchor="middle" pointer-events="none" x="0" y="0" font-size="10px" fill="#FFFFFF" font-family="sans-serif"> Toby</text><text class="caption" text-anchor="middle" pointer-events="none" x="0" y="10" font-size="10px" fill="#FFFFFF" font-family="sans-serif"> Jones</text></g><g class="node" aria-label="graph-node201" transform="translate(152.4772149803758,-300.4732816174201)" style="touch-action: none; -webkit-tap-highlight-color: rgba(0, 0, 0, 0);"><circle class="outline" cx="0" cy="0" r="25" fill="#F79767" stroke="#f36924" stroke-width="2px"/><text class="caption" text-anchor="middle" pointer-events="none" x="0" y="0" font-size="10px" fill="#FFFFFF" font-family="sans-serif"> Derek</text><text class="caption" text-anchor="middle" pointer-events="none" x="0" y="10" font-size="10px" fill="#FFFFFF" font-family="sans-serif"> Luke</text></g><g class="node" aria-label="graph-node192" transform="translate(-66.12768077652441,14.304841284272698)" style="touch-action: none; -webkit-tap-highlight-color: rgba(0, 0, 0, 0);"><circle class="outline" cx="0" cy="0" r="25" fill="#F79767" stroke="#f36924" stroke-width="2px"/><text class="caption" text-anchor="middle" pointer-events="none" x="0" y="0" font-size="10px" fill="#FFFFFF" font-family="sans-serif"> Samuel L.</text><text class="caption" text-anchor="middle" pointer-events="none" x="0" y="10" font-size="10px" fill="#FFFFFF" font-family="sans-serif"> Jackson</text></g><g class="node" aria-label="graph-node207" transform="translate(-49.79021378835117,-433.8885377480609)" style="touch-action: none; -webkit-tap-highlight-color: rgba(0, 0, 0, 0);"><circle class="outline" cx="0" cy="0" r="25" fill="#F79767" stroke="#f36924" stroke-width="2px"/><text class="caption" text-anchor="middle" pointer-events="none" x="0" y="0" font-size="10px" fill="#FFFFFF" font-family="sans-serif"> Martin</text><text class="caption" text-anchor="middle" pointer-events="none" x="0" y="10" font-size="10px" fill="#FFFFFF" font-family="sans-serif"> Sherm…</text></g><g class="node" aria-label="graph-node205" transform="translate(83.07842758468999,-431.8146587430832)" style="touch-action: none; -webkit-tap-highlight-color: rgba(0, 0, 0, 0);"><circle class="outline" cx="0" cy="0" r="25" fill="#F79767" stroke="#f36924" stroke-width="2px"/><text class="caption" text-anchor="middle" pointer-events="none" x="0" y="0" font-size="10px" fill="#FFFFFF" font-family="sans-serif"> Lex</text><text class="caption" text-anchor="middle" pointer-events="none" x="0" y="10" font-size="10px" fill="#FFFFFF" font-family="sans-serif"> Shrap…</text></g><g class="node" aria-label="graph-node186" transform="translate(-360.41578277485934,-217.41889678813214)" style="touch-action: none; -webkit-tap-highlight-color: rgba(0, 0, 0, 0);"><circle class="outline" cx="0" cy="0" r="25" fill="#F79767" stroke="#f36924" stroke-width="2px"/><text class="caption" text-anchor="middle" pointer-events="none" x="0" y="0" font-size="10px" fill="#FFFFFF" font-family="sans-serif"> Joe</text><text class="caption" text-anchor="middle" pointer-events="none" x="0" y="10" font-size="10px" fill="#FFFFFF" font-family="sans-serif"> Simon</text></g></g></svg>