<svg xmlns="http://www.w3.org/2000/svg" width="326.5593566894531" height="260.8053283691406" viewBox="-144.15359497070312 -145.7618408203125 326.5593566894531 260.8053283691406"><title>Neo4j Graph Visualization</title><desc>Created using Neo4j (http://www.neo4j.com/)</desc><g class="layer relationships"><g class="relationship" transform="translate(114.0114692444717 85.43292071126345) rotate(282.36826936980276)"><path class="outline" fill="#A5ABB6" stroke="none" d="M 25 0.5 L 65.67793561229547 0.5 L 65.67793561229547 -0.5 L 25 -0.5 Z M 111.24043561229547 0.5 L 151.91837122459094 0.5 L 151.91837122459094 3.5 L 158.91837122459094 0 L 151.91837122459094 -3.5 L 151.91837122459094 -0.5 L 111.24043561229547 -0.5 Z"/><text text-anchor="middle" pointer-events="none" font-size="8px" fill="#000000" x="88.45918561229547" y="3" font-family="sans-serif">ACTED_IN</text></g><g class="relationship" transform="translate(114.0114692444717 85.43292071126345) rotate(244.77685952657185)"><path class="outline" fill="#A5ABB6" stroke="none" d="M 25 0.5 L 85.47115759256995 0.5 L 85.47115759256995 -0.5 L 25 -0.5 Z M 131.03365759256997 0.5 L 191.5048151851399 0.5 L 191.5048151851399 3.5 L 198.5048151851399 0 L 191.5048151851399 -3.5 L 191.5048151851399 -0.5 L 131.03365759256997 -0.5 Z"/><text text-anchor="middle" pointer-events="none" font-size="8px" fill="#000000" x="108.25240759256995" y="3" transform="rotate(180 108.25240759256995 0)" font-family="sans-serif">ACTED_IN</text></g><g class="relationship" transform="translate(114.0114692444717 85.43292071126345) rotate(215.7692372254449)"><path class="outline" fill="#A5ABB6" stroke="none" d="M 25 0.5 L 114.93845637150272 0.5 L 114.93845637150272 -0.5 L 25 -0.5 Z M 160.50095637150272 0.5 L 250.43941274300545 0.5 L 250.43941274300545 3.5 L 257.43941274300545 0 L 250.43941274300545 -3.5 L 250.43941274300545 -0.5 L 160.50095637150272 -0.5 Z"/><text text-anchor="middle" pointer-events="none" font-size="8px" fill="#000000" x="137.71970637150272" y="3" transform="rotate(180 137.71970637150272 0)" font-family="sans-serif">ACTED_IN</text></g><g class="relationship" transform="translate(-71.41009343132484 86.0434986676987) rotate(321.2768883941633)"><path class="outline" fill="#A5ABB6" stroke="none" d="M 25 0.5 L 117.79856892921154 0.5 L 117.79856892921154 -0.5 L 25 -0.5 Z M 163.36106892921154 0.5 L 256.1596378584231 0.5 L 256.1596378584231 3.5 L 263.1596378584231 0 L 256.1596378584231 -3.5 L 256.1596378584231 -0.5 L 163.36106892921154 -0.5 Z"/><text text-anchor="middle" pointer-events="none" font-size="8px" fill="#000000" x="140.57981892921154" y="3" font-family="sans-serif">ACTED_IN</text></g><g class="relationship" transform="translate(-71.41009343132484 86.0434986676987) rotate(293.97203550123754)"><path class="outline" fill="#A5ABB6" stroke="none" d="M 25 0.5 L 84.6936838424817 0.5 L 84.6936838424817 -0.5 L 25 -0.5 Z M 130.2561838424817 0.5 L 189.9498676849634 0.5 L 189.9498676849634 3.5 L 196.9498676849634 0 L 189.9498676849634 -3.5 L 189.9498676849634 -0.5 L 130.2561838424817 -0.5 Z"/><text text-anchor="middle" pointer-events="none" font-size="8px" fill="#000000" x="107.4749338424817" y="3" font-family="sans-serif">ACTED_IN</text></g><g class="relationship" transform="translate(-71.41009343132484 86.0434986676987) rotate(255.2119701590334)"><path class="outline" fill="#A5ABB6" stroke="none" d="M 25 0.5 L 59.408402350194294 0.5 L 59.408402350194294 -0.5 L 25 -0.5 Z M 104.9709023501943 0.5 L 139.3793047003886 0.5 L 139.3793047003886 3.5 L 146.3793047003886 0 L 139.3793047003886 -3.5 L 139.3793047003886 -0.5 L 104.9709023501943 -0.5 Z"/><text text-anchor="middle" pointer-events="none" font-size="8px" fill="#000000" x="82.1896523501943" y="3" transform="rotate(180 82.1896523501943 0)" font-family="sans-serif">ACTED_IN</text></g></g><g class="layer nodes"><g class="node" aria-label="graph-node4" transform="translate(114.0114692444717,85.43292071126345)" style="touch-action: none; -webkit-tap-highlight-color: rgba(0, 0, 0, 0);"><circle class="outline" cx="0" cy="0" r="25" fill="#F79767" stroke="#f36924" stroke-width="2px"/><text class="caption" text-anchor="middle" pointer-events="none" x="0" y="0" font-size="10px" fill="#FFFFFF" font-family="sans-serif"> Hugo</text><text class="caption" text-anchor="middle" pointer-events="none" x="0" y="10" font-size="10px" fill="#FFFFFF" font-family="sans-serif"> Weavi…</text></g><g class="node" aria-label="graph-node1" transform="translate(-71.41009343132484,86.0434986676987)" style="touch-action: none; -webkit-tap-highlight-color: rgba(0, 0, 0, 0);"><circle class="outline" cx="0" cy="0" r="25" fill="#F79767" stroke="#f36924" stroke-width="2px"/><text class="caption" text-anchor="middle" pointer-events="none" x="0" y="0" font-size="10px" fill="#FFFFFF" font-family="sans-serif"> Keanu</text><text class="caption" text-anchor="middle" pointer-events="none" x="0" y="10" font-size="10px" fill="#FFFFFF" font-family="sans-serif"> Reeves</text></g><g class="node" aria-label="graph-node10" transform="translate(153.40575612454967,-94.21689820074258)" style="touch-action: none; -webkit-tap-highlight-color: rgba(0, 0, 0, 0);"><circle class="outline" cx="0" cy="0" r="25" fill="#C990C0" stroke="#b261a5" stroke-width="2px"/><text class="caption" text-anchor="middle" pointer-events="none" x="0" y="-5" font-size="10px" fill="#FFFFFF" font-family="sans-serif"> The</text><text class="caption" text-anchor="middle" pointer-events="none" x="0" y="5" font-size="10px" fill="#FFFFFF" font-family="sans-serif"> Matrix</text><text class="caption" text-anchor="middle" pointer-events="none" x="0" y="15" font-size="10px" fill="#FFFFFF" font-family="sans-serif"> Rev…</text></g><g class="node" aria-label="graph-node9" transform="translate(18.766077706440726,-116.7618314503857)" style="touch-action: none; -webkit-tap-highlight-color: rgba(0, 0, 0, 0);"><circle class="outline" cx="0" cy="0" r="25" fill="#C990C0" stroke="#b261a5" stroke-width="2px"/><text class="caption" text-anchor="middle" pointer-events="none" x="0" y="-5" font-size="10px" fill="#FFFFFF" font-family="sans-serif"> The</text><text class="caption" text-anchor="middle" pointer-events="none" x="0" y="5" font-size="10px" fill="#FFFFFF" font-family="sans-serif"> Matrix</text><text class="caption" text-anchor="middle" pointer-events="none" x="0" y="15" font-size="10px" fill="#FFFFFF" font-family="sans-serif"> Rel…</text></g><g class="node" aria-label="graph-node0" transform="translate(-115.15359238719907,-79.65916388992606)" style="touch-action: none; -webkit-tap-highlight-color: rgba(0, 0, 0, 0);"><circle class="outline" cx="0" cy="0" r="25" fill="#C990C0" stroke="#b261a5" stroke-width="2px"/><text class="caption" text-anchor="middle" pointer-events="none" x="0" y="0" font-size="10px" fill="#FFFFFF" font-family="sans-serif"> The</text><text class="caption" text-anchor="middle" pointer-events="none" x="0" y="10" font-size="10px" fill="#FFFFFF" font-family="sans-serif"> Matrix</text></g></g></svg>