<svg xmlns="http://www.w3.org/2000/svg" width="703.9156494140625" height="498.70489501953125" viewBox="-422.7823791503906 -110.4672622680664 703.9156494140625 498.70489501953125"><title>Neo4j Graph Visualization</title><desc>Created using Neo4j (http://www.neo4j.com/)</desc><g class="layer relationships"><g class="relationship" transform="translate(117.09886306947959 129.01557068946767) rotate(377.6199447270961)"><path class="outline" fill="#A5ABB6" stroke="none" d="M 25 0.5 L 44.55940062302956 0.5 L 44.55940062302956 -0.5 L 25 -0.5 Z M 90.12190062302956 0.5 L 109.68130124605912 0.5 L 109.68130124605912 3.5 L 116.68130124605912 0 L 109.68130124605912 -3.5 L 109.68130124605912 -0.5 L 90.12190062302956 -0.5 Z"/><text text-anchor="middle" pointer-events="none" font-size="8px" fill="#000000" x="67.34065062302956" y="3" font-family="sans-serif">ACTED_IN</text></g><g class="relationship" transform="translate(117.09886306947959 129.01557068946767) rotate(319.69567368838483)"><path class="outline" fill="#A5ABB6" stroke="none" d="M 25 0.5 L 54.794262866111495 0.5 L 54.794262866111495 -0.5 L 25 -0.5 Z M 100.3567628661115 0.5 L 130.151025732223 0.5 L 130.151025732223 3.5 L 137.151025732223 0 L 130.151025732223 -3.5 L 130.151025732223 -0.5 L 100.3567628661115 -0.5 Z"/><text text-anchor="middle" pointer-events="none" font-size="8px" fill="#000000" x="77.5755128661115" y="3" font-family="sans-serif">ACTED_IN</text></g><g class="relationship" transform="translate(117.09886306947959 129.01557068946767) rotate(252.93231485363305)"><path class="outline" fill="#A5ABB6" stroke="none" d="M 25 0.5 L 79.29870518620673 0.5 L 79.29870518620673 -0.5 L 25 -0.5 Z M 124.86120518620673 0.5 L 179.15991037241346 0.5 L 179.15991037241346 3.5 L 186.15991037241346 0 L 179.15991037241346 -3.5 L 179.15991037241346 -0.5 L 124.86120518620673 -0.5 Z"/><text text-anchor="middle" pointer-events="none" font-size="8px" fill="#000000" x="102.07995518620673" y="3" transform="rotate(180 102.07995518620673 0)" font-family="sans-serif">ACTED_IN</text></g><g class="relationship" transform="translate(117.09886306947959 129.01557068946767) rotate(221.85598720047608)"><path class="outline" fill="#A5ABB6" stroke="none" d="M 25 0.5 L 131.44035829940972 0.5 L 131.44035829940972 -0.5 L 25 -0.5 Z M 177.00285829940972 0.5 L 283.44321659881945 0.5 L 283.44321659881945 3.5 L 290.44321659881945 0 L 283.44321659881945 -3.5 L 283.44321659881945 -0.5 L 177.00285829940972 -0.5 Z"/><text text-anchor="middle" pointer-events="none" font-size="8px" fill="#000000" x="154.22160829940972" y="3" transform="rotate(180 154.22160829940972 0)" font-family="sans-serif">ACTED_IN</text></g><g class="relationship" transform="translate(117.09886306947959 129.01557068946767) rotate(486.1738205668435)"><path class="outline" fill="#A5ABB6" stroke="none" d="M 25 0.5 L 116.31878827626284 0.5 L 116.31878827626284 -0.5 L 25 -0.5 Z M 161.88128827626284 0.5 L 253.20007655252567 0.5 L 253.20007655252567 3.5 L 260.2000765525257 0 L 253.20007655252567 -3.5 L 253.20007655252567 -0.5 L 161.88128827626284 -0.5 Z"/><text text-anchor="middle" pointer-events="none" font-size="8px" fill="#000000" x="139.10003827626284" y="3" transform="rotate(180 139.10003827626284 0)" font-family="sans-serif">ACTED_IN</text></g><g class="relationship" transform="translate(-117.45360904230795 125.54302339706729) rotate(311.01990967769973)"><path class="outline" fill="#A5ABB6" stroke="none" d="M 25 0.5 L 105.1915498063623 0.5 L 105.1915498063623 -0.5 L 25 -0.5 Z M 150.7540498063623 0.5 L 230.9455996127246 0.5 L 230.9455996127246 3.5 L 237.9455996127246 0 L 230.9455996127246 -3.5 L 230.9455996127246 -0.5 L 150.7540498063623 -0.5 Z"/><text text-anchor="middle" pointer-events="none" font-size="8px" fill="#000000" x="127.9727998063623" y="3" font-family="sans-serif">ACTED_IN</text></g><g class="relationship" transform="translate(-117.45360904230795 125.54302339706729) rotate(269.8900332086861)"><path class="outline" fill="#A5ABB6" stroke="none" d="M 25 0.5 L 77.22408229138257 0.5 L 77.22408229138257 -0.5 L 25 -0.5 Z M 122.78658229138257 0.5 L 175.01066458276514 0.5 L 175.01066458276514 3.5 L 182.01066458276514 0 L 175.01066458276514 -3.5 L 175.01066458276514 -0.5 L 122.78658229138257 -0.5 Z"/><text text-anchor="middle" pointer-events="none" font-size="8px" fill="#000000" x="100.00533229138257" y="3" transform="rotate(180 100.00533229138257 0)" font-family="sans-serif">ACTED_IN</text></g><g class="relationship" transform="translate(-117.45360904230795 125.54302339706729) rotate(434.1800373626681)"><path class="outline" fill="#A5ABB6" stroke="none" d="M 25 0.5 L 95.16611838484107 0.5 L 95.16611838484107 -0.5 L 25 -0.5 Z M 140.72861838484107 0.5 L 210.89473676968214 0.5 L 210.89473676968214 3.5 L 217.89473676968214 0 L 210.89473676968214 -3.5 L 210.89473676968214 -0.5 L 140.72861838484107 -0.5 Z"/><text text-anchor="middle" pointer-events="none" font-size="8px" fill="#000000" x="117.94736838484107" y="3" font-family="sans-serif">ACTED_IN</text></g><g class="relationship" transform="translate(-2.6022972345850945 126.94247316492817) rotate(286.1158561047544)"><path class="outline" fill="#A5ABB6" stroke="none" d="M 25 0.5 L 77.69843292033545 0.5 L 77.69843292033545 -0.5 L 25 -0.5 Z M 123.26093292033545 0.5 L 175.9593658406709 0.5 L 175.9593658406709 3.5 L 182.9593658406709 0 L 175.9593658406709 -3.5 L 175.9593658406709 -0.5 L 123.26093292033545 -0.5 Z"/><text text-anchor="middle" pointer-events="none" font-size="8px" fill="#000000" x="100.47968292033545" y="3" font-family="sans-serif">ACTED_IN</text></g><g class="relationship" transform="translate(-2.6022972345850945 126.94247316492817) rotate(241.05781861870463)"><path class="outline" fill="#A5ABB6" stroke="none" d="M 25 0.5 L 92.79526118544734 0.5 L 92.79526118544734 -0.5 L 25 -0.5 Z M 138.35776118544734 0.5 L 206.1530223708947 0.5 L 206.1530223708947 3.5 L 213.1530223708947 0 L 206.1530223708947 -3.5 L 206.1530223708947 -0.5 L 138.35776118544734 -0.5 Z"/><text text-anchor="middle" pointer-events="none" font-size="8px" fill="#000000" x="115.57651118544734" y="3" transform="rotate(180 115.57651118544734 0)" font-family="sans-serif">ACTED_IN</text></g><g class="relationship" transform="translate(-2.6022972345850945 126.94247316492817) rotate(461.82492056100205)"><path class="outline" fill="#A5ABB6" stroke="none" d="M 25 0.5 L 92.3846254026283 0.5 L 92.3846254026283 -0.5 L 25 -0.5 Z M 137.9471254026283 0.5 L 205.3317508052566 0.5 L 205.3317508052566 3.5 L 212.3317508052566 0 L 205.3317508052566 -3.5 L 205.3317508052566 -0.5 L 137.9471254026283 -0.5 Z"/><text text-anchor="middle" pointer-events="none" font-size="8px" fill="#000000" x="115.1658754026283" y="3" transform="rotate(180 115.1658754026283 0)" font-family="sans-serif">ACTED_IN</text></g><g class="relationship" transform="translate(-244.4732230590758 126.65787352164699) rotate(259.39709081242995)"><path class="outline" fill="#A5ABB6" stroke="none" d="M 25 0.5 L 58.87139485895648 0.5 L 58.87139485895648 -0.5 L 25 -0.5 Z M 104.43389485895648 0.5 L 138.30528971791296 0.5 L 138.30528971791296 3.5 L 145.30528971791296 0 L 138.30528971791296 -3.5 L 138.30528971791296 -0.5 L 104.43389485895648 -0.5 Z"/><text text-anchor="middle" pointer-events="none" font-size="8px" fill="#000000" x="81.65264485895648" y="3" transform="rotate(180 81.65264485895648 0)" font-family="sans-serif">ACTED_IN</text></g><g class="relationship" transform="translate(-244.4732230590758 126.65787352164699) rotate(191.38122577443454)"><path class="outline" fill="#A5ABB6" stroke="none" d="M 25 0.5 L 49.87078964633716 0.5 L 49.87078964633716 -0.5 L 25 -0.5 Z M 95.43328964633716 0.5 L 120.30407929267432 0.5 L 120.30407929267432 3.5 L 127.30407929267432 0 L 120.30407929267432 -3.5 L 120.30407929267432 -0.5 L 95.43328964633716 -0.5 Z"/><text text-anchor="middle" pointer-events="none" font-size="8px" fill="#000000" x="72.65203964633716" y="3" transform="rotate(180 72.65203964633716 0)" font-family="sans-serif">ACTED_IN</text></g><g class="relationship" transform="translate(-244.4732230590758 126.65787352164699) rotate(501.5804148824597)"><path class="outline" fill="#A5ABB6" stroke="none" d="M 25 0.5 L 43.18875675928318 0.5 L 43.18875675928318 -0.5 L 25 -0.5 Z M 88.75125675928318 0.5 L 106.94001351856636 0.5 L 106.94001351856636 3.5 L 113.94001351856636 0 L 106.94001351856636 -3.5 L 106.94001351856636 -0.5 L 88.75125675928318 -0.5 Z"/><text text-anchor="middle" pointer-events="none" font-size="8px" fill="#000000" x="65.97000675928318" y="3" transform="rotate(180 65.97000675928318 0)" font-family="sans-serif">ACTED_IN</text></g><g class="relationship" transform="translate(-244.4732230590758 126.65787352164699) rotate(226.36777540444058)"><path class="outline" fill="#A5ABB6" stroke="none" d="M 25 0.5 L 53.49868819283584 0.5 L 53.49868819283584 -0.5 L 25 -0.5 Z M 99.06118819283584 0.5 L 127.55987638567169 0.5 L 127.55987638567169 3.5 L 134.55987638567169 0 L 127.55987638567169 -3.5 L 127.55987638567169 -0.5 L 99.06118819283584 -0.5 Z"/><text text-anchor="middle" pointer-events="none" font-size="8px" fill="#000000" x="76.27993819283584" y="3" transform="rotate(180 76.27993819283584 0)" font-family="sans-serif">ACTED_IN</text></g><g class="relationship" transform="translate(-244.4732230590758 126.65787352164699) rotate(326.3401929643925)"><path class="outline" fill="#A5ABB6" stroke="none" d="M 25 0.5 L 153.69043607815755 0.5 L 153.69043607815755 -0.5 L 25 -0.5 Z M 199.25293607815755 0.5 L 327.9433721563151 0.5 L 327.9433721563151 3.5 L 334.9433721563151 0 L 327.9433721563151 -3.5 L 327.9433721563151 -0.5 L 199.25293607815755 -0.5 Z"/><text text-anchor="middle" pointer-events="none" font-size="8px" fill="#000000" x="176.47168607815755" y="3" font-family="sans-serif">ACTED_IN</text></g><g class="relationship" transform="translate(-244.4732230590758 126.65787352164699) rotate(301.31612443593696)"><path class="outline" fill="#A5ABB6" stroke="none" d="M 25 0.5 L 95.52728685700413 0.5 L 95.52728685700413 -0.5 L 25 -0.5 Z M 141.08978685700413 0.5 L 211.61707371400826 0.5 L 211.61707371400826 3.5 L 218.61707371400826 0 L 211.61707371400826 -3.5 L 211.61707371400826 -0.5 L 141.08978685700413 -0.5 Z"/><text text-anchor="middle" pointer-events="none" font-size="8px" fill="#000000" x="118.30853685700413" y="3" font-family="sans-serif">ACTED_IN</text></g><g class="relationship" transform="translate(-244.4732230590758 126.65787352164699) rotate(410.2788569267849)"><path class="outline" fill="#A5ABB6" stroke="none" d="M 25 0.5 L 124.90877180557757 0.5 L 124.90877180557757 -0.5 L 25 -0.5 Z M 170.47127180557757 0.5 L 270.38004361115514 0.5 L 270.38004361115514 3.5 L 277.38004361115514 0 L 270.38004361115514 -3.5 L 270.38004361115514 -0.5 L 170.47127180557757 -0.5 Z"/><text text-anchor="middle" pointer-events="none" font-size="8px" fill="#000000" x="147.69002180557757" y="3" font-family="sans-serif">ACTED_IN</text></g></g><g class="layer nodes"><g class="node" aria-label="graph-node0" transform="translate(-51.23674367037845,359.2376529689275)" style="touch-action: none; -webkit-tap-highlight-color: rgba(0, 0, 0, 0);"><circle class="outline" cx="0" cy="0" r="25" fill="#C990C0" stroke="#b261a5" stroke-width="2px"/><text class="caption" text-anchor="middle" pointer-events="none" x="0" y="0" font-size="10px" fill="#FFFFFF" font-family="sans-serif"> The</text><text class="caption" text-anchor="middle" pointer-events="none" x="0" y="10" font-size="10px" fill="#FFFFFF" font-family="sans-serif"> Matrix</text></g><g class="node" aria-label="graph-node4" transform="translate(117.09886306947959,129.01557068946767)" style="touch-action: none; -webkit-tap-highlight-color: rgba(0, 0, 0, 0);"><circle class="outline" cx="0" cy="0" r="25" fill="#F79767" stroke="#f36924" stroke-width="2px"/><text class="caption" text-anchor="middle" pointer-events="none" x="0" y="0" font-size="10px" fill="#FFFFFF" font-family="sans-serif"> Hugo</text><text class="caption" text-anchor="middle" pointer-events="none" x="0" y="10" font-size="10px" fill="#FFFFFF" font-family="sans-serif"> Weavi…</text></g><g class="node" aria-label="graph-node105" transform="translate(252.1332363269431,171.90273848754666)" style="touch-action: none; -webkit-tap-highlight-color: rgba(0, 0, 0, 0);"><circle class="outline" cx="0" cy="0" r="25" fill="#C990C0" stroke="#b261a5" stroke-width="2px"/><text class="caption" text-anchor="middle" pointer-events="none" x="0" y="0" font-size="10px" fill="#FFFFFF" font-family="sans-serif"> Cloud</text><text class="caption" text-anchor="middle" pointer-events="none" x="0" y="10" font-size="10px" fill="#FFFFFF" font-family="sans-serif"> Atlas</text></g><g class="node" aria-label="graph-node116" transform="translate(240.75839553070142,24.128606878496043)" style="touch-action: none; -webkit-tap-highlight-color: rgba(0, 0, 0, 0);"><circle class="outline" cx="0" cy="0" r="25" fill="#C990C0" stroke="#b261a5" stroke-width="2px"/><text class="caption" text-anchor="middle" pointer-events="none" x="0" y="0" font-size="10px" fill="#FFFFFF" font-family="sans-serif"> V for</text><text class="caption" text-anchor="middle" pointer-events="none" x="0" y="10" font-size="10px" fill="#FFFFFF" font-family="sans-serif"> Vende…</text></g><g class="node" aria-label="graph-node10" transform="translate(55.12317373085355,-72.84458307914463)" style="touch-action: none; -webkit-tap-highlight-color: rgba(0, 0, 0, 0);"><circle class="outline" cx="0" cy="0" r="25" fill="#C990C0" stroke="#b261a5" stroke-width="2px"/><text class="caption" text-anchor="middle" pointer-events="none" x="0" y="-5" font-size="10px" fill="#FFFFFF" font-family="sans-serif"> The</text><text class="caption" text-anchor="middle" pointer-events="none" x="0" y="5" font-size="10px" fill="#FFFFFF" font-family="sans-serif"> Matrix</text><text class="caption" text-anchor="middle" pointer-events="none" x="0" y="15" font-size="10px" fill="#FFFFFF" font-family="sans-serif"> Rev…</text></g><g class="node" aria-label="graph-node9" transform="translate(-117.85092076002019,-81.46725990885224)" style="touch-action: none; -webkit-tap-highlight-color: rgba(0, 0, 0, 0);"><circle class="outline" cx="0" cy="0" r="25" fill="#C990C0" stroke="#b261a5" stroke-width="2px"/><text class="caption" text-anchor="middle" pointer-events="none" x="0" y="-5" font-size="10px" fill="#FFFFFF" font-family="sans-serif"> The</text><text class="caption" text-anchor="middle" pointer-events="none" x="0" y="5" font-size="10px" fill="#FFFFFF" font-family="sans-serif"> Matrix</text><text class="caption" text-anchor="middle" pointer-events="none" x="0" y="15" font-size="10px" fill="#FFFFFF" font-family="sans-serif"> Rel…</text></g><g class="node" aria-label="graph-node3" transform="translate(-117.45360904230795,125.54302339706729)" style="touch-action: none; -webkit-tap-highlight-color: rgba(0, 0, 0, 0);"><circle class="outline" cx="0" cy="0" r="25" fill="#F79767" stroke="#f36924" stroke-width="2px"/><text class="caption" text-anchor="middle" pointer-events="none" x="0" y="0" font-size="10px" fill="#FFFFFF" font-family="sans-serif"> Laurence</text><text class="caption" text-anchor="middle" pointer-events="none" x="0" y="10" font-size="10px" fill="#FFFFFF" font-family="sans-serif"> Fishb…</text></g><g class="node" aria-label="graph-node2" transform="translate(-2.6022972345850945,126.94247316492817)" style="touch-action: none; -webkit-tap-highlight-color: rgba(0, 0, 0, 0);"><circle class="outline" cx="0" cy="0" r="25" fill="#F79767" stroke="#f36924" stroke-width="2px"/><text class="caption" text-anchor="middle" pointer-events="none" x="0" y="5" font-size="10px" fill="#FFFFFF" font-family="sans-serif"> Carrie-A…</text></g><g class="node" aria-label="graph-node1" transform="translate(-244.4732230590758,126.65787352164699)" style="touch-action: none; -webkit-tap-highlight-color: rgba(0, 0, 0, 0);"><circle class="outline" cx="0" cy="0" r="25" fill="#F79767" stroke="#f36924" stroke-width="2px"/><text class="caption" text-anchor="middle" pointer-events="none" x="0" y="0" font-size="10px" fill="#FFFFFF" font-family="sans-serif"> Keanu</text><text class="caption" text-anchor="middle" pointer-events="none" x="0" y="10" font-size="10px" fill="#FFFFFF" font-family="sans-serif"> Reeves</text></g><g class="node" aria-label="graph-node154" transform="translate(-275.8096107510919,-40.73962500302612)" style="touch-action: none; -webkit-tap-highlight-color: rgba(0, 0, 0, 0);"><circle class="outline" cx="0" cy="0" r="25" fill="#C990C0" stroke="#b261a5" stroke-width="2px"/><text class="caption" text-anchor="middle" pointer-events="none" x="0" y="5" font-size="10px" fill="#FFFFFF" font-family="sans-serif"> Somethi…</text></g><g class="node" aria-label="graph-node87" transform="translate(-393.78237799747006,96.60277710237402)" style="touch-action: none; -webkit-tap-highlight-color: rgba(0, 0, 0, 0);"><circle class="outline" cx="0" cy="0" r="25" fill="#C990C0" stroke="#b261a5" stroke-width="2px"/><text class="caption" text-anchor="middle" pointer-events="none" x="0" y="0" font-size="10px" fill="#FFFFFF" font-family="sans-serif"> The</text><text class="caption" text-anchor="middle" pointer-events="none" x="0" y="10" font-size="10px" fill="#FFFFFF" font-family="sans-serif"> Repla…</text></g><g class="node" aria-label="graph-node100" transform="translate(-353.33009599486,212.9973695311902)" style="touch-action: none; -webkit-tap-highlight-color: rgba(0, 0, 0, 0);"><circle class="outline" cx="0" cy="0" r="25" fill="#C990C0" stroke="#b261a5" stroke-width="2px"/><text class="caption" text-anchor="middle" pointer-events="none" x="0" y="0" font-size="10px" fill="#FFFFFF" font-family="sans-serif"> Johnny</text><text class="caption" text-anchor="middle" pointer-events="none" x="0" y="10" font-size="10px" fill="#FFFFFF" font-family="sans-serif"> Mnem…</text></g><g class="node" aria-label="graph-node11" transform="translate(-354.5738023561988,11.171005910438708)" style="touch-action: none; -webkit-tap-highlight-color: rgba(0, 0, 0, 0);"><circle class="outline" cx="0" cy="0" r="25" fill="#C990C0" stroke="#b261a5" stroke-width="2px"/><text class="caption" text-anchor="middle" pointer-events="none" x="0" y="-5" font-size="10px" fill="#FFFFFF" font-family="sans-serif"> The</text><text class="caption" text-anchor="middle" pointer-events="none" x="0" y="5" font-size="10px" fill="#FFFFFF" font-family="sans-serif"> Devil's</text><text class="caption" text-anchor="middle" pointer-events="none" x="0" y="15" font-size="10px" fill="#FFFFFF" font-family="sans-serif"> Adv…</text></g></g></svg>