<svg xmlns="http://www.w3.org/2000/svg" width="813.88427734375" height="713.7574462890625" viewBox="-456.5843811035156 -251.6182098388672 813.88427734375 713.7574462890625"><title>Neo4j Graph Visualization</title><desc>Created using Neo4j (http://www.neo4j.com/)</desc><g class="layer relationships"><g class="relationship" transform="translate(-65.14043402997078 433.13921647485347) rotate(302.0597602203809)"><path class="outline" fill="#A5ABB6" stroke="none" d="M 25 0.5 L 107.79085673890128 0.5 L 107.79085673890128 -0.5 L 25 -0.5 Z M 153.35335673890128 0.5 L 236.14421347780257 0.5 L 236.14421347780257 3.5 L 243.14421347780257 0 L 236.14421347780257 -3.5 L 236.14421347780257 -0.5 L 153.35335673890128 -0.5 Z"/><text text-anchor="middle" pointer-events="none" font-size="8px" fill="#000000" x="130.57210673890128" y="3" font-family="sans-serif">ACTED_IN</text></g><g class="relationship" transform="translate(-65.14043402997078 433.13921647485347) rotate(214.64168150965065)"><path class="outline" fill="#A5ABB6" stroke="none" d="M 25 0.5 L 180.43885452788942 0.5 L 180.43885452788942 -0.5 L 25 -0.5 Z M 226.00135452788942 0.5 L 381.44020905577884 0.5 L 381.44020905577884 3.5 L 388.44020905577884 0 L 381.44020905577884 -3.5 L 381.44020905577884 -0.5 L 226.00135452788942 -0.5 Z"/><text text-anchor="middle" pointer-events="none" font-size="8px" fill="#000000" x="203.22010452788942" y="3" transform="rotate(180 203.22010452788942 0)" font-family="sans-serif">ACTED_IN</text></g><g class="relationship" transform="translate(-65.14043402997078 433.13921647485347) rotate(234.38200426497917)"><path class="outline" fill="#A5ABB6" stroke="none" d="M 25 0.5 L 115.7342754264003 0.5 L 115.7342754264003 -0.5 L 25 -0.5 Z M 161.2967754264003 0.5 L 252.0310508528006 0.5 L 252.0310508528006 3.5 L 259.0310508528006 0 L 252.0310508528006 -3.5 L 252.0310508528006 -0.5 L 161.2967754264003 -0.5 Z"/><text text-anchor="middle" pointer-events="none" font-size="8px" fill="#000000" x="138.5155254264003" y="3" transform="rotate(180 138.5155254264003 0)" font-family="sans-serif">ACTED_IN</text></g><g class="relationship" transform="translate(-65.14043402997078 433.13921647485347) rotate(322.9184060548801)"><path class="outline" fill="#A5ABB6" stroke="none" d="M 25 0.5 L 162.9967787153233 0.5 L 162.9967787153233 -0.5 L 25 -0.5 Z M 208.5592787153233 0.5 L 346.5560574306466 0.5 L 346.5560574306466 3.5 L 353.5560574306466 0 L 346.5560574306466 -3.5 L 346.5560574306466 -0.5 L 208.5592787153233 -0.5 Z"/><text text-anchor="middle" pointer-events="none" font-size="8px" fill="#000000" x="185.7780287153233" y="3" font-family="sans-serif">ACTED_IN</text></g><g class="relationship" transform="translate(-65.14043402997078 433.13921647485347) rotate(269.85218978508)"><path class="outline" fill="#A5ABB6" stroke="none" d="M 25 0.5 L 90.27483305733394 0.5 L 90.27483305733394 -0.5 L 25 -0.5 Z M 135.83733305733392 0.5 L 201.11216611466787 0.5 L 201.11216611466787 3.5 L 208.11216611466787 0 L 201.11216611466787 -3.5 L 201.11216611466787 -0.5 L 135.83733305733392 -0.5 Z"/><text text-anchor="middle" pointer-events="none" font-size="8px" fill="#000000" x="113.05608305733394" y="3" transform="rotate(180 113.05608305733394 0)" font-family="sans-serif">ACTED_IN</text></g><g class="relationship" transform="translate(328.29984924527173 -159.95733015144057) rotate(484.46484338961017)"><path class="outline" fill="#A5ABB6" stroke="none" d="M 25 0.5 L 194.92091601724454 0.5 L 194.92091601724454 -0.5 L 25 -0.5 Z M 241.81154101724454 0.5 L 411.7324570344891 0.5 L 411.7324570344891 3.5 L 418.7324570344891 0 L 411.7324570344891 -3.5 L 411.7324570344891 -0.5 L 241.81154101724454 -0.5 Z"/><text text-anchor="middle" pointer-events="none" font-size="8px" fill="#000000" x="218.36622851724454" y="3" transform="rotate(180 218.36622851724454 0)" font-family="sans-serif">DIRECTED</text></g><g class="relationship" transform="translate(-195.15102201151183 -222.6182141428631) rotate(476.5395489067391)"><path class="outline" fill="#A5ABB6" stroke="none" d="M 24.018736134675446,6.953439040707552 L 24.277555179777966,5.987513214418485 A 813.1048313169139 813.1048313169139 0 0 0 205.7680572946197,33.177621215185354 L 205.7324450183429,34.17698689689473 A 814.1048313169139 814.1048313169139 0 0 1 24.018736134675446,6.953439040707552 Z M 257.5363992767402,34.3737234545124 L 257.50837852657423,33.37411611282255 A 813.1048313169139 813.1048313169139 0 0 0 439.20016306014634,7.563270253059062 L 438.4457378593779,4.659678922233471 L 446.1009470322008,6.286876673070342 L 440.20606332783757,11.434725360826516 L 439.45163812706915,8.531134030000926 A 814.1048313169139 814.1048313169139 0 0 1 257.5363992767402,34.3737234545124"/><text text-anchor="middle" pointer-events="none" font-size="8px" fill="#000000" x="231.63475571507607" y="37.187521386655135" transform="rotate(180 231.63475571507607 34.187521386655135)" font-family="sans-serif">PRODUCED</text></g><g class="relationship" transform="translate(-195.15102201151183 -222.6182141428631) rotate(476.5395489067391)"><path class="outline" fill="#A5ABB6" stroke="none" d="M 24.018736134675446,-6.953439040707552 L 24.277555179777966,-5.987513214418485 A 813.1048313169139 813.1048313169139 0 0 1 213.76324307614428,-33.42315868896583 L 213.7374637088278,-34.42282634585024 A 814.1048313169139 814.1048313169139 0 0 0 24.018736134675446,-6.953439040707552 Z M 249.52974426121173,-34.55875515989487 L 249.5115584299745,-33.55892053579828 A 813.1048313169139 813.1048313169139 0 0 1 439.20016306014634,-7.563270253059062 L 438.4457378593779,-4.659678922233471 L 446.1009470322008,-6.286876673070342 L 440.20606332783757,-11.434725360826516 L 439.45163812706915,-8.531134030000926 A 814.1048313169139 814.1048313169139 0 0 0 249.52974426121173,-34.55875515989487"/><text text-anchor="middle" pointer-events="none" font-size="8px" fill="#000000" x="231.63475571507578" y="-31.187521386655135" transform="rotate(180 231.63475571507578 -34.187521386655135)" font-family="sans-serif">WROTE</text></g><g class="relationship" transform="translate(-195.15102201151183 -222.6182141428631) rotate(417.5615129389274)"><path class="outline" fill="#A5ABB6" stroke="none" d="M 25 0.5 L 226.91897474290235 0.5 L 226.91897474290235 -0.5 L 25 -0.5 Z M 273.8095997429024 0.5 L 475.7285744858047 0.5 L 475.7285744858047 3.5 L 482.7285744858047 0 L 475.7285744858047 -3.5 L 475.7285744858047 -0.5 L 273.8095997429024 -0.5 Z"/><text text-anchor="middle" pointer-events="none" font-size="8px" fill="#000000" x="250.36428724290235" y="3" font-family="sans-serif">DIRECTED</text></g><g class="relationship" transform="translate(-195.15102201151183 -222.6182141428631) rotate(454.7633265519414)"><path class="outline" fill="#A5ABB6" stroke="none" d="M 25 0.5 L 186.22267865986825 0.5 L 186.22267865986825 -0.5 L 25 -0.5 Z M 233.11330365986825 0.5 L 394.3359823197365 0.5 L 394.3359823197365 3.5 L 401.3359823197365 0 L 394.3359823197365 -3.5 L 394.3359823197365 -0.5 L 233.11330365986825 -0.5 Z"/><text text-anchor="middle" pointer-events="none" font-size="8px" fill="#000000" x="209.66799115986825" y="3" transform="rotate(180 209.66799115986825 0)" font-family="sans-serif">DIRECTED</text></g><g class="relationship" transform="translate(-195.15102201151183 -222.6182141428631) rotate(404.69951492808065)"><path class="outline" fill="#A5ABB6" stroke="none" d="M 25 0.5 L 276.9452730105384 0.5 L 276.9452730105384 -0.5 L 25 -0.5 Z M 323.8358980105384 0.5 L 575.7811710210768 0.5 L 575.7811710210768 3.5 L 582.7811710210768 0 L 575.7811710210768 -3.5 L 575.7811710210768 -0.5 L 323.8358980105384 -0.5 Z"/><text text-anchor="middle" pointer-events="none" font-size="8px" fill="#000000" x="300.3905855105384" y="3" font-family="sans-serif">DIRECTED</text></g><g class="relationship" transform="translate(-195.15102201151183 -222.6182141428631) rotate(432.976032281018)"><path class="outline" fill="#A5ABB6" stroke="none" d="M 25 0.5 L 194.0617119282792 0.5 L 194.0617119282792 -0.5 L 25 -0.5 Z M 240.9523369282792 0.5 L 410.0140488565584 0.5 L 410.0140488565584 3.5 L 417.0140488565584 0 L 410.0140488565584 -3.5 L 410.0140488565584 -0.5 L 240.9523369282792 -0.5 Z"/><text text-anchor="middle" pointer-events="none" font-size="8px" fill="#000000" x="217.5070244282792" y="3" font-family="sans-serif">DIRECTED</text></g><g class="relationship" transform="translate(93.46419508507356 -212.42055740513757) rotate(500.5407979446003)"><path class="outline" fill="#A5ABB6" stroke="none" d="M 24.018736134675446,6.953439040707552 L 24.277555179777966,5.987513214418485 A 1152.9553407289138 1152.9553407289138 0 0 0 293.6079613190257,44.90681649908811 L 293.58274230735464,45.906498449235414 A 1153.9553407289138 1153.9553407289138 0 0 1 24.018736134675446,6.953439040707552 Z M 345.3818890023867,46.0502694927095 L 345.3622196679782,45.05046295278089 A 1152.9553407289138 1152.9553407289138 0 0 0 614.9045193370845,7.626826993866783 L 614.1441598847246,4.724784006037856 L 621.8026795507452,6.336328769665306 L 615.9183319402309,11.496217644305352 L 615.157972487871,8.594174656476426 A 1153.9553407289138 1153.9553407289138 0 0 1 345.3818890023867,46.0502694927095"/><text text-anchor="middle" pointer-events="none" font-size="8px" fill="#000000" x="319.48289661349986" y="48.76907088170856" transform="rotate(180 319.48289661349986 45.76907088170856)" font-family="sans-serif">PRODUCED</text></g><g class="relationship" transform="translate(93.46419508507356 -212.42055740513757) rotate(500.5407979446003)"><path class="outline" fill="#A5ABB6" stroke="none" d="M 24.018736134675446,-6.953439040707552 L 24.277555179777966,-5.987513214418485 A 1152.9553407289138 1152.9553407289138 0 0 1 301.60648933420407,-45.08082913514636 L 301.5882077360933,-46.08066201276665 A 1153.9553407289138 1153.9553407289138 0 0 0 24.018736134675446,-6.953439040707552 Z M 337.375580124231,-46.179991600216 L 337.3628489343031,-45.18007264509856 A 1152.9553407289138 1152.9553407289138 0 0 1 614.9045193370845,-7.626826993866783 L 614.1441598847246,-4.724784006037856 L 621.8026795507452,-6.336328769665306 L 615.9183319402309,-11.496217644305352 L 615.157972487871,-8.594174656476426 A 1153.9553407289138 1153.9553407289138 0 0 0 337.375580124231,-46.179991600216"/><text text-anchor="middle" pointer-events="none" font-size="8px" fill="#000000" x="319.48289661349924" y="-42.76907088170856" transform="rotate(180 319.48289661349924 -45.76907088170856)" font-family="sans-serif">WROTE</text></g><g class="relationship" transform="translate(93.46419508507356 -212.42055740513757) rotate(452.2277544453146)"><path class="outline" fill="#A5ABB6" stroke="none" d="M 25 0.5 L 182.3673424246065 0.5 L 182.3673424246065 -0.5 L 25 -0.5 Z M 229.2579674246065 0.5 L 386.625309849213 0.5 L 386.625309849213 3.5 L 393.625309849213 0 L 386.625309849213 -3.5 L 386.625309849213 -0.5 L 229.2579674246065 -0.5 Z"/><text text-anchor="middle" pointer-events="none" font-size="8px" fill="#000000" x="205.8126549246065" y="3" transform="rotate(180 205.8126549246065 0)" font-family="sans-serif">DIRECTED</text></g><g class="relationship" transform="translate(93.46419508507356 -212.42055740513757) rotate(488.00391965510585)"><path class="outline" fill="#A5ABB6" stroke="none" d="M 25 0.5 L 236.1780118082927 0.5 L 236.1780118082927 -0.5 L 25 -0.5 Z M 283.0686368082927 0.5 L 494.2466486165854 0.5 L 494.2466486165854 3.5 L 501.2466486165854 0 L 494.2466486165854 -3.5 L 494.2466486165854 -0.5 L 283.0686368082927 -0.5 Z"/><text text-anchor="middle" pointer-events="none" font-size="8px" fill="#000000" x="259.6233243082927" y="3" transform="rotate(180 259.6233243082927 0)" font-family="sans-serif">DIRECTED</text></g><g class="relationship" transform="translate(93.46419508507356 -212.42055740513757) rotate(431.0358474508627)"><path class="outline" fill="#A5ABB6" stroke="none" d="M 25 0.5 L 193.68437825851152 0.5 L 193.68437825851152 -0.5 L 25 -0.5 Z M 240.57500325851152 0.5 L 409.25938151702303 0.5 L 409.25938151702303 3.5 L 416.25938151702303 0 L 409.25938151702303 -3.5 L 409.25938151702303 -0.5 L 240.57500325851152 -0.5 Z"/><text text-anchor="middle" pointer-events="none" font-size="8px" fill="#000000" x="217.12969075851152" y="3" font-family="sans-serif">DIRECTED</text></g><g class="relationship" transform="translate(93.46419508507356 -212.42055740513757) rotate(471.1067006481232)"><path class="outline" fill="#A5ABB6" stroke="none" d="M 25 0.5 L 194.10910454186313 0.5 L 194.10910454186313 -0.5 L 25 -0.5 Z M 240.99972954186313 0.5 L 410.10883408372626 0.5 L 410.10883408372626 3.5 L 417.10883408372626 0 L 410.10883408372626 -3.5 L 410.10883408372626 -0.5 L 240.99972954186313 -0.5 Z"/><text text-anchor="middle" pointer-events="none" font-size="8px" fill="#000000" x="217.55441704186313" y="3" transform="rotate(180 217.55441704186313 0)" font-family="sans-serif">DIRECTED</text></g><g class="relationship" transform="translate(-427.58438652876436 -182.3206830303609) rotate(446.6458218574869)"><path class="outline" fill="#A5ABB6" stroke="none" d="M 25 0.5 L 163.60258317698487 0.5 L 163.60258317698487 -0.5 L 25 -0.5 Z M 210.49320817698487 0.5 L 349.09579135396973 0.5 L 349.09579135396973 3.5 L 356.09579135396973 0 L 349.09579135396973 -3.5 L 349.09579135396973 -0.5 L 210.49320817698487 -0.5 Z"/><text text-anchor="middle" pointer-events="none" font-size="8px" fill="#000000" x="187.04789567698487" y="3" font-family="sans-serif">DIRECTED</text></g></g><g class="layer nodes"><g class="node" aria-label="graph-node105" transform="translate(77.19145317267619,205.88835705521927)" style="touch-action: none; -webkit-tap-highlight-color: rgba(0, 0, 0, 0);"><circle class="outline" cx="0" cy="0" r="25" fill="#C990C0" stroke="#b261a5" stroke-width="2px"/><text class="caption" text-anchor="middle" pointer-events="none" x="0" y="0" font-size="10px" fill="#FFFFFF" font-family="sans-serif"> Cloud</text><text class="caption" text-anchor="middle" pointer-events="none" x="0" y="10" font-size="10px" fill="#FFFFFF" font-family="sans-serif"> Atlas</text></g><g class="node" aria-label="graph-node4" transform="translate(-65.14043402997078,433.13921647485347)" style="touch-action: none; -webkit-tap-highlight-color: rgba(0, 0, 0, 0);"><circle class="outline" cx="0" cy="0" r="25" fill="#F79767" stroke="#f36924" stroke-width="2px"/><text class="caption" text-anchor="middle" pointer-events="none" x="0" y="0" font-size="10px" fill="#FFFFFF" font-family="sans-serif"> Hugo</text><text class="caption" text-anchor="middle" pointer-events="none" x="0" y="10" font-size="10px" fill="#FFFFFF" font-family="sans-serif"> Weavi…</text></g><g class="node" aria-label="graph-node108" transform="translate(328.29984924527173,-159.95733015144057)" style="touch-action: none; -webkit-tap-highlight-color: rgba(0, 0, 0, 0);"><circle class="outline" cx="0" cy="0" r="25" fill="#F79767" stroke="#f36924" stroke-width="2px"/><text class="caption" text-anchor="middle" pointer-events="none" x="0" y="0" font-size="10px" fill="#FFFFFF" font-family="sans-serif"> Tom</text><text class="caption" text-anchor="middle" pointer-events="none" x="0" y="10" font-size="10px" fill="#FFFFFF" font-family="sans-serif"> Tykwer</text></g><g class="node" aria-label="graph-node6" transform="translate(-195.15102201151183,-222.6182141428631)" style="touch-action: none; -webkit-tap-highlight-color: rgba(0, 0, 0, 0);"><circle class="outline" cx="0" cy="0" r="25" fill="#F79767" stroke="#f36924" stroke-width="2px"/><text class="caption" text-anchor="middle" pointer-events="none" x="0" y="0" font-size="10px" fill="#FFFFFF" font-family="sans-serif"> Lana</text><text class="caption" text-anchor="middle" pointer-events="none" x="0" y="10" font-size="10px" fill="#FFFFFF" font-family="sans-serif"> Wach…</text></g><g class="node" aria-label="graph-node5" transform="translate(93.46419508507356,-212.42055740513757)" style="touch-action: none; -webkit-tap-highlight-color: rgba(0, 0, 0, 0);"><circle class="outline" cx="0" cy="0" r="25" fill="#F79767" stroke="#f36924" stroke-width="2px"/><text class="caption" text-anchor="middle" pointer-events="none" x="0" y="0" font-size="10px" fill="#FFFFFF" font-family="sans-serif"> Lilly</text><text class="caption" text-anchor="middle" pointer-events="none" x="0" y="10" font-size="10px" fill="#FFFFFF" font-family="sans-serif"> Wach…</text></g><g class="node" aria-label="graph-node116" transform="translate(-405.2872263094368,198.12226779651684)" style="touch-action: none; -webkit-tap-highlight-color: rgba(0, 0, 0, 0);"><circle class="outline" cx="0" cy="0" r="25" fill="#C990C0" stroke="#b261a5" stroke-width="2px"/><text class="caption" text-anchor="middle" pointer-events="none" x="0" y="0" font-size="10px" fill="#FFFFFF" font-family="sans-serif"> V for</text><text class="caption" text-anchor="middle" pointer-events="none" x="0" y="10" font-size="10px" fill="#FFFFFF" font-family="sans-serif"> Vende…</text></g><g class="node" aria-label="graph-node25" transform="translate(-427.58438652876436,-182.3206830303609)" style="touch-action: none; -webkit-tap-highlight-color: rgba(0, 0, 0, 0);"><circle class="outline" cx="0" cy="0" r="25" fill="#F79767" stroke="#f36924" stroke-width="2px"/><text class="caption" text-anchor="middle" pointer-events="none" x="0" y="0" font-size="10px" fill="#FFFFFF" font-family="sans-serif"> James</text><text class="caption" text-anchor="middle" pointer-events="none" x="0" y="10" font-size="10px" fill="#FFFFFF" font-family="sans-serif"> Marsh…</text></g><g class="node" aria-label="graph-node10" transform="translate(-230.55396140443878,202.24529535504072)" style="touch-action: none; -webkit-tap-highlight-color: rgba(0, 0, 0, 0);"><circle class="outline" cx="0" cy="0" r="25" fill="#C990C0" stroke="#b261a5" stroke-width="2px"/><text class="caption" text-anchor="middle" pointer-events="none" x="0" y="-5" font-size="10px" fill="#FFFFFF" font-family="sans-serif"> The</text><text class="caption" text-anchor="middle" pointer-events="none" x="0" y="5" font-size="10px" fill="#FFFFFF" font-family="sans-serif"> Matrix</text><text class="caption" text-anchor="middle" pointer-events="none" x="0" y="15" font-size="10px" fill="#FFFFFF" font-family="sans-serif"> Rev…</text></g><g class="node" aria-label="graph-node9" transform="translate(236.8631339084837,204.88818456069467)" style="touch-action: none; -webkit-tap-highlight-color: rgba(0, 0, 0, 0);"><circle class="outline" cx="0" cy="0" r="25" fill="#C990C0" stroke="#b261a5" stroke-width="2px"/><text class="caption" text-anchor="middle" pointer-events="none" x="0" y="-5" font-size="10px" fill="#FFFFFF" font-family="sans-serif"> The</text><text class="caption" text-anchor="middle" pointer-events="none" x="0" y="5" font-size="10px" fill="#FFFFFF" font-family="sans-serif"> Matrix</text><text class="caption" text-anchor="middle" pointer-events="none" x="0" y="15" font-size="10px" fill="#FFFFFF" font-family="sans-serif"> Rel…</text></g><g class="node" aria-label="graph-node0" transform="translate(-65.74181028224444,200.0278260683019)" style="touch-action: none; -webkit-tap-highlight-color: rgba(0, 0, 0, 0);"><circle class="outline" cx="0" cy="0" r="25" fill="#C990C0" stroke="#b261a5" stroke-width="2px"/><text class="caption" text-anchor="middle" pointer-events="none" x="0" y="0" font-size="10px" fill="#FFFFFF" font-family="sans-serif"> The</text><text class="caption" text-anchor="middle" pointer-events="none" x="0" y="10" font-size="10px" fill="#FFFFFF" font-family="sans-serif"> Matrix</text></g></g></svg>