<svg xmlns="http://www.w3.org/2000/svg" width="436.8387451171875" height="448.95166015625" viewBox="-221.8927764892578 -217.36940002441406 436.8387451171875 448.95166015625"><title>Neo4j Graph Visualization</title><desc>Created using Neo4j (http://www.neo4j.com/)</desc><g class="layer relationships"><g class="relationship" transform="translate(37.45671906991217 202.58227913349313) rotate(327.6498875609616)"><path class="outline" fill="#A5ABB6" stroke="none" d="M 21.40063509461097,12.933012701892217 L 21.90063509461097,12.06698729810778 A 95.91332450406658 95.91332450406658 0 0 0 42.2386069177119,20.854435100679595 L 41.95065224017634,21.812079138767544 A 96.91332450406658 96.91332450406658 0 0 1 21.40063509461097,12.933012701892217 Z M 93.36285479275217,23.02319071744722 L 93.12031273193244,22.05304982627041 A 95.91332450406658 95.91332450406658 0 0 0 113.84950515004121,14.233016677159664 L 112.47350630845591,11.567190878658213 L 120.29909848680882,11.466657013210863 L 115.68417027215494,17.7874510751616 L 114.30817143056964,15.121625276660147 A 96.91332450406658 96.91332450406658 0 0 1 93.36285479275217,23.02319071744722"/><text text-anchor="middle" pointer-events="none" font-size="8px" fill="#000000" x="67.58672921955949" y="28.390196168083577" font-family="sans-serif">PRODUCED</text></g><g class="relationship" transform="translate(37.45671906991217 202.58227913349313) rotate(327.6498875609616)"><path class="outline" fill="#A5ABB6" stroke="none" d="M 25 0.5 L 44.31184423716046 0.5 L 44.31184423716046 -0.5 L 25 -0.5 Z M 91.20246923716046 0.5 L 110.51431347432091 0.5 L 110.51431347432091 3.5 L 117.51431347432091 0 L 110.51431347432091 -3.5 L 110.51431347432091 -0.5 L 91.20246923716046 -0.5 Z"/><text text-anchor="middle" pointer-events="none" font-size="8px" fill="#000000" x="67.75715673716046" y="3" font-family="sans-serif">DIRECTED</text></g><g class="relationship" transform="translate(37.45671906991217 202.58227913349313) rotate(327.6498875609616)"><path class="outline" fill="#A5ABB6" stroke="none" d="M 21.40063509461097,-12.933012701892217 L 21.90063509461097,-12.06698729810778 A 95.91332450406658 95.91332450406658 0 0 1 49.9501104121418,-22.82828717937815 L 49.74255648741408,-23.80651075726314 A 96.91332450406658 96.91332450406658 0 0 0 21.40063509461097,-12.933012701892217 Z M 85.48568053014726,-24.648507583640495 L 85.32441908066673,-23.661595862709262 A 95.91332450406658 95.91332450406658 0 0 1 113.84950515004121,-14.233016677159664 L 112.47350630845591,-11.567190878658213 L 120.29909848680882,-11.466657013210863 L 115.68417027215494,-17.7874510751616 L 114.30817143056964,-15.121625276660147 A 96.91332450406658 96.91332450406658 0 0 0 85.48568053014726,-24.648507583640495"/><text text-anchor="middle" pointer-events="none" font-size="8px" fill="#000000" x="67.58672921955946" y="-22.390196168083577" font-family="sans-serif">WROTE</text></g><g class="relationship" transform="translate(185.94599015021214 -86.6855484199395) rotate(213.6673812418935)"><path class="outline" fill="#A5ABB6" stroke="none" d="M 24.018736134675446,6.953439040707552 L 24.277555179777966,5.987513214418485 A 175.08589721727625 175.08589721727625 0 0 0 44.17245791042232,10.098182649592331 L 44.02726824979247,11.087586491532619 A 176.08589721727625 176.08589721727625 0 0 1 24.018736134675446,6.953439040707552 Z M 90.90833299023393,11.65855533752682 L 90.78728290377833,10.665908936954565 A 175.08589721727625 175.08589721727625 0 0 0 110.77639807629767,7.040990663830057 L 110.07074538543498,4.12516243159856 L 117.69760606664828,5.880439090522372 L 111.71726833078125,10.928761640138717 L 111.01161563991856,8.012933407907221 A 176.08589721727625 176.08589721727625 0 0 1 90.90833299023393,11.65855533752682"/><text text-anchor="middle" pointer-events="none" font-size="8px" fill="#000000" x="67.45480152491639" y="15.440399584169029" transform="rotate(180 67.45480152491639 12.440399584169029)" font-family="sans-serif">DIRECTED</text></g><g class="relationship" transform="translate(185.94599015021214 -86.6855484199395) rotate(213.6673812418935)"><path class="outline" fill="#A5ABB6" stroke="none" d="M 24.018736134675446,-6.953439040707552 L 24.277555179777966,-5.987513214418485 A 175.08589721727625 175.08589721727625 0 0 1 49.66831210000568,-10.816002537016828 L 49.55451191321086,-11.809506194526676 A 176.08589721727625 176.08589721727625 0 0 0 24.018736134675446,-6.953439040707552 Z M 85.36514675270664,-12.245647245542301 L 85.2755766787059,-11.249666722718928 A 175.08589721727625 175.08589721727625 0 0 1 110.77639807629767,-7.040990663830057 L 110.07074538543498,-4.12516243159856 L 117.69760606664828,-5.880439090522372 L 111.71726833078125,-10.928761640138717 L 111.01161563991856,-8.012933407907221 A 176.08589721727625 176.08589721727625 0 0 0 85.36514675270664,-12.245647245542301"/><text text-anchor="middle" pointer-events="none" font-size="8px" fill="#000000" x="67.45480152491642" y="-9.440399584169029" transform="rotate(180 67.45480152491642 -12.440399584169029)" font-family="sans-serif">WROTE</text></g><g class="relationship" transform="translate(-72.0222385357835 -188.3694060964111) rotate(369.3295347802195)"><path class="outline" fill="#A5ABB6" stroke="none" d="M 24.018736134675446,6.953439040707552 L 24.277555179777966,5.987513214418485 A 174.42942657864023 174.42942657864023 0 0 0 44.00666988317367,10.069363229016119 L 43.860957411258795,11.058690210114094 A 175.42942657864023 175.42942657864023 0 0 1 24.018736134675446,6.953439040707552 Z M 90.74145729105456,11.630933955760213 L 90.61993694579562,10.638345014814263 A 174.42942657864023 174.42942657864023 0 0 0 110.44280818907752,7.039283721409956 L 109.73731492130125,4.123416912187979 L 117.36407962189152,5.879110564802307 L 111.38346587944591,10.927106133705925 L 110.67797261166963,8.011239324483949 A 175.42942657864023 175.42942657864023 0 0 1 90.74145729105456,11.630933955760213"/><text text-anchor="middle" pointer-events="none" font-size="8px" fill="#000000" x="67.28810729365148" y="15.418021268655878" font-family="sans-serif">DIRECTED</text></g><g class="relationship" transform="translate(-72.0222385357835 -188.3694060964111) rotate(369.3295347802195)"><path class="outline" fill="#A5ABB6" stroke="none" d="M 24.018736134675446,-6.953439040707552 L 24.277555179777966,-5.987513214418485 A 174.42942657864023 174.42942657864023 0 0 1 49.50212616882854,-10.789752807760067 L 49.387919024847406,-11.783209766195455 A 175.42942657864023 175.42942657864023 0 0 0 24.018736134675446,-6.953439040707552 Z M 85.19845746811517,-12.220328753939242 L 85.10853387336181,-11.224380087035854 A 174.42942657864023 174.42942657864023 0 0 1 110.44280818907752,-7.039283721409956 L 109.73731492130125,-4.123416912187979 L 117.36407962189152,-5.879110564802307 L 111.38346587944591,-10.927106133705925 L 110.67797261166963,-8.011239324483949 A 175.42942657864023 175.42942657864023 0 0 0 85.19845746811517,-12.220328753939242"/><text text-anchor="middle" pointer-events="none" font-size="8px" fill="#000000" x="67.28810729365148" y="-9.418021268655878" font-family="sans-serif">WROTE</text></g><g class="relationship" transform="translate(-192.89278398398716 -6.718293834268188) rotate(421.08527881049287)"><path class="outline" fill="#A5ABB6" stroke="none" d="M 21.40063509461097,12.933012701892217 L 21.90063509461097,12.06698729810778 A 96.00260028632589 96.00260028632589 0 0 0 49.993639254735776,22.841998251492413 L 49.78626678853526,23.82026031263038 A 97.00260028632589 97.00260028632589 0 0 1 21.40063509461097,12.933012701892217 Z M 85.52961196363759,24.66176644498789 L 85.3685062130728,23.67482929545153 A 96.00260028632589 96.00260028632589 0 0 0 113.93745665013627,14.233811621971594 L 112.56138387874172,11.568023984550612 L 120.38697326601765,11.467273094954491 L 115.77222034532899,17.788195138532902 L 114.39614757393444,15.122407501111923 A 97.00260028632589 97.00260028632589 0 0 1 85.52961196363759,24.66176644498789"/><text text-anchor="middle" pointer-events="none" font-size="8px" fill="#000000" x="67.63060239836638" y="28.402163598777335" font-family="sans-serif">WROTE</text></g><g class="relationship" transform="translate(-192.89278398398716 -6.718293834268188) rotate(421.08527881049287)"><path class="outline" fill="#A5ABB6" stroke="none" d="M 25 0.5 L 44.355622622262885 0.5 L 44.355622622262885 -0.5 L 25 -0.5 Z M 91.24624762226289 0.5 L 110.60187024452577 0.5 L 110.60187024452577 3.5 L 117.60187024452577 0 L 110.60187024452577 -3.5 L 110.60187024452577 -0.5 L 91.24624762226289 -0.5 Z"/><text text-anchor="middle" pointer-events="none" font-size="8px" fill="#000000" x="67.80093512226289" y="3" font-family="sans-serif">DIRECTED</text></g><g class="relationship" transform="translate(-192.89278398398716 -6.718293834268188) rotate(421.08527881049287)"><path class="outline" fill="#A5ABB6" stroke="none" d="M 21.40063509461097,-12.933012701892217 L 21.90063509461097,-12.06698729810778 A 96.00260028632589 96.00260028632589 0 0 1 42.281652731534564,-20.869862224974142 L 41.99394924825533,-21.82758175892394 A 97.00260028632589 97.00260028632589 0 0 0 21.40063509461097,-12.933012701892217 Z M 93.40707148492044,-23.038001696785187 L 93.16475698842481,-22.067803941279593 A 96.00260028632589 96.00260028632589 0 0 1 113.93745665013627,-14.233811621971594 L 112.56138387874172,-11.568023984550612 L 120.38697326601765,-11.467273094954491 L 115.77222034532899,-17.788195138532902 L 114.39614757393444,-15.122407501111923 A 97.00260028632589 97.00260028632589 0 0 0 93.40707148492044,-23.038001696785187"/><text text-anchor="middle" pointer-events="none" font-size="8px" fill="#000000" x="67.63060239836638" y="-22.402163598777335" font-family="sans-serif">PRODUCED</text></g></g><g class="layer nodes"><g class="node" aria-label="graph-node45" transform="translate(37.45671906991217,202.58227913349313)" style="touch-action: none; -webkit-tap-highlight-color: rgba(0, 0, 0, 0);"><circle class="outline" cx="0" cy="0" r="25" fill="#F79767" stroke="#f36924" stroke-width="2px"/><text class="caption" text-anchor="middle" pointer-events="none" x="0" y="0" font-size="10px" fill="#FFFFFF" font-family="sans-serif"> Cameron</text><text class="caption" text-anchor="middle" pointer-events="none" x="0" y="10" font-size="10px" fill="#FFFFFF" font-family="sans-serif"> Crowe</text></g><g class="node" aria-label="graph-node37" transform="translate(157.8519775207369,126.32409080190395)" style="touch-action: none; -webkit-tap-highlight-color: rgba(0, 0, 0, 0);"><circle class="outline" cx="0" cy="0" r="25" fill="#C990C0" stroke="#b261a5" stroke-width="2px"/><text class="caption" text-anchor="middle" pointer-events="none" x="0" y="0" font-size="10px" fill="#FFFFFF" font-family="sans-serif"> Jerry</text><text class="caption" text-anchor="middle" pointer-events="none" x="0" y="10" font-size="10px" fill="#FFFFFF" font-family="sans-serif"> Maguire</text></g><g class="node" aria-label="graph-node6" transform="translate(185.94599015021214,-86.6855484199395)" style="touch-action: none; -webkit-tap-highlight-color: rgba(0, 0, 0, 0);"><circle class="outline" cx="0" cy="0" r="25" fill="#F79767" stroke="#f36924" stroke-width="2px"/><text class="caption" text-anchor="middle" pointer-events="none" x="0" y="0" font-size="10px" fill="#FFFFFF" font-family="sans-serif"> Lana</text><text class="caption" text-anchor="middle" pointer-events="none" x="0" y="10" font-size="10px" fill="#FFFFFF" font-family="sans-serif"> Wach…</text></g><g class="node" aria-label="graph-node121" transform="translate(67.76685333396728,-165.4040674728054)" style="touch-action: none; -webkit-tap-highlight-color: rgba(0, 0, 0, 0);"><circle class="outline" cx="0" cy="0" r="25" fill="#C990C0" stroke="#b261a5" stroke-width="2px"/><text class="caption" text-anchor="middle" pointer-events="none" x="0" y="0" font-size="10px" fill="#FFFFFF" font-family="sans-serif"> Speed</text><text class="caption" text-anchor="middle" pointer-events="none" x="0" y="10" font-size="10px" fill="#FFFFFF" font-family="sans-serif"> Racer</text></g><g class="node" aria-label="graph-node5" transform="translate(-72.0222385357835,-188.3694060964111)" style="touch-action: none; -webkit-tap-highlight-color: rgba(0, 0, 0, 0);"><circle class="outline" cx="0" cy="0" r="25" fill="#F79767" stroke="#f36924" stroke-width="2px"/><text class="caption" text-anchor="middle" pointer-events="none" x="0" y="0" font-size="10px" fill="#FFFFFF" font-family="sans-serif"> Lilly</text><text class="caption" text-anchor="middle" pointer-events="none" x="0" y="10" font-size="10px" fill="#FFFFFF" font-family="sans-serif"> Wach…</text></g><g class="node" aria-label="graph-node156" transform="translate(-192.89278398398716,-6.718293834268188)" style="touch-action: none; -webkit-tap-highlight-color: rgba(0, 0, 0, 0);"><circle class="outline" cx="0" cy="0" r="25" fill="#F79767" stroke="#f36924" stroke-width="2px"/><text class="caption" text-anchor="middle" pointer-events="none" x="0" y="0" font-size="10px" fill="#FFFFFF" font-family="sans-serif"> Nancy</text><text class="caption" text-anchor="middle" pointer-events="none" x="0" y="10" font-size="10px" fill="#FFFFFF" font-family="sans-serif"> Meyers</text></g><g class="node" aria-label="graph-node154" transform="translate(-123.94373826700794,118.1068738682207)" style="touch-action: none; -webkit-tap-highlight-color: rgba(0, 0, 0, 0);"><circle class="outline" cx="0" cy="0" r="25" fill="#C990C0" stroke="#b261a5" stroke-width="2px"/><text class="caption" text-anchor="middle" pointer-events="none" x="0" y="5" font-size="10px" fill="#FFFFFF" font-family="sans-serif"> Somethi…</text></g></g></svg>