<svg xmlns="http://www.w3.org/2000/svg" width="621.2408447265625" height="474.7123718261719" viewBox="-457.060791015625 -286.0362854003906 621.2408447265625 474.7123718261719"><title>Neo4j Graph Visualization</title><desc>Created using Neo4j (http://www.neo4j.com/)</desc><g class="layer relationships"><g class="relationship" transform="translate(-428.0607906688274 -10.16476576193719) rotate(368.5461629442722)"><path class="outline" fill="#A5ABB6" stroke="none" d="M 24.018736134675446,6.953439040707552 L 24.277555179777966,5.987513214418485 A 296.582187360526 296.582187360526 0 0 0 75.32866440174728,14.976834740451807 L 75.24197676371375,15.97307028158258 A 297.582187360526 297.582187360526 0 0 1 24.018736134675446,6.953439040707552 Z M 121.73588037823998,16.372675565887278 L 121.66632914987187,15.375097184689878 A 296.582187360526 296.582187360526 0 0 0 172.86440782472022,7.264585838550065 L 172.13787328712274,4.353890463613339 L 179.7771194558388,6.054454479978787 L 173.83312054151682,11.145513005132369 L 173.10658600391935,8.234817630195641 A 297.582187360526 297.582187360526 0 0 1 121.73588037823998,16.372675565887278"/><text text-anchor="middle" pointer-events="none" font-size="8px" fill="#000000" x="98.48540933944452" y="19.582334004679296" font-family="sans-serif">twowheeler</text></g><g class="relationship" transform="translate(-428.0607906688274 -10.16476576193719) rotate(368.5461629442722)"><path class="outline" fill="#A5ABB6" stroke="none" d="M 24.018736134675446,-6.953439040707552 L 24.277555179777966,-5.987513214418485 A 296.582187360526 296.582187360526 0 0 1 88.84141891176169,-15.84238756888999 L 88.80029285863074,-16.84154153488015 A 297.582187360526 297.582187360526 0 0 0 24.018736134675446,-6.953439040707552 Z M 108.16463970032122,-17.00797400717164 L 108.14069348883362,-16.008260758807182 A 296.582187360526 296.582187360526 0 0 1 172.86440782472022,-7.264585838550065 L 172.13787328712274,-4.353890463613339 L 179.7771194558388,-6.054454479978787 L 173.83312054151682,-11.145513005132369 L 173.10658600391935,-8.234817630195641 A 297.582187360526 297.582187360526 0 0 0 108.16463970032122,-17.00797400717164"/><text text-anchor="middle" pointer-events="none" font-size="8px" fill="#000000" x="98.4854093394444" y="-13.582334004679296" font-family="sans-serif">trek</text></g><g class="relationship" transform="translate(-226.29336547284652 20.155792047888553) rotate(281.20045992563155)"><path class="outline" fill="#A5ABB6" stroke="none" d="M 24.018736134675446,-6.953439040707552 L 24.277555179777966,-5.987513214418485 A 419.78045959651615 419.78045959651615 0 0 1 106.96196083906985,-19.48753760008384 L 106.90011238602101,-20.485623151955735 A 420.78045959651615 420.78045959651615 0 0 0 24.018736134675446,-6.953439040707552 Z M 153.39553058883402,-20.79294255365477 L 153.3468809967802,-19.79412664609572 A 419.78045959651615 419.78045959651615 0 0 1 236.20251601506166,-7.388267410991423 L 235.4644317562392,-4.480479312302234 L 243.1103689551402,-6.150702156853869 L 237.1866283601583,-11.265318209243677 L 236.44854410133584,-8.357530110554487 A 420.78045959651615 420.78045959651615 0 0 0 153.39553058883402,-20.79294255365477"/><text text-anchor="middle" pointer-events="none" font-size="8px" fill="#000000" x="130.1468781393003" y="-17.78200526291863" font-family="sans-serif">twowheeler</text></g><g class="relationship" transform="translate(-226.29336547284652 20.155792047888553) rotate(350.7520467955901)"><path class="outline" fill="#A5ABB6" stroke="none" d="M 24.018736134675446,-6.953439040707552 L 24.277555179777966,-5.987513214418485 A 611.6032524956114 611.6032524956114 0 0 1 156.39598823378716,-26.266972924379047 L 156.35318902264547,-27.266056618333437 A 612.6032524956114 612.6032524956114 0 0 0 24.018736134675446,-6.953439040707552 Z M 202.84427499557037,-27.491875743020955 L 202.81118318624564,-26.49242342692196 A 611.6032524956114 611.6032524956114 0 0 1 335.1203826858238,-7.497356526396304 L 334.37211201971274,-4.592173053663876 L 342.02385589988467,-6.235588884259137 L 336.1180769073053,-11.370934490039541 L 335.3698062411942,-8.465751017307113 A 612.6032524956114 612.6032524956114 0 0 0 202.84427499557037,-27.491875743020955"/><text text-anchor="middle" pointer-events="none" font-size="8px" fill="#000000" x="179.59901760620718" y="-24.320168152328392" font-family="sans-serif">twowheeler</text></g><g class="relationship" transform="translate(-226.29336547284652 20.155792047888553) rotate(281.20045992563155)"><path class="outline" fill="#A5ABB6" stroke="none" d="M 24.018736134675446,6.953439040707552 L 24.277555179777966,5.987513214418485 A 419.78045959651615 419.78045959651615 0 0 0 120.49551255777483,20.10713765391796 L 120.46590369904087,21.106699215546087 A 420.78045959651615 420.78045959651615 0 0 1 24.018736134675446,6.953439040707552 Z M 139.82271468392605,21.23464136125881 L 139.8063213803841,20.234775740488203 A 419.78045959651615 419.78045959651615 0 0 0 236.20251601506166,7.388267410991423 L 235.4644317562392,4.480479312302234 L 243.1103689551402,6.150702156853869 L 237.1866283601583,11.265318209243677 L 236.44854410133584,8.357530110554487 A 420.78045959651615 420.78045959651615 0 0 1 139.82271468392605,21.23464136125881"/><text text-anchor="middle" pointer-events="none" font-size="8px" fill="#000000" x="130.14687813930047" y="23.78200526291863" font-family="sans-serif">trek</text></g><g class="relationship" transform="translate(-226.29336547284652 20.155792047888553) rotate(350.7520467955901)"><path class="outline" fill="#A5ABB6" stroke="none" d="M 24.018736134675446,6.953439040707552 L 24.277555179777966,5.987513214418485 A 611.6032524956114 611.6032524956114 0 0 0 169.94226092814287,26.696968777984353 L 169.92161050813186,27.69675553532477 A 612.6032524956114 612.6032524956114 0 0 1 24.018736134675446,6.953439040707552 Z M 189.27230980145197,27.790746843229613 L 189.2613725679295,26.790806656556924 A 611.6032524956114 611.6032524956114 0 0 0 335.1203826858238,7.497356526396304 L 334.37211201971274,4.592173053663876 L 342.02385589988467,6.235588884259137 L 336.1180769073053,11.370934490039541 L 335.3698062411942,8.465751017307113 A 612.6032524956114 612.6032524956114 0 0 1 189.27230980145197,27.790746843229613"/><text text-anchor="middle" pointer-events="none" font-size="8px" fill="#000000" x="179.59901760620727" y="30.320168152328392" font-family="sans-serif">trek</text></g><g class="relationship" transform="translate(135.18008645342545 -38.70064242679416) rotate(495.83644903149775)"><path class="outline" fill="#A5ABB6" stroke="none" d="M 24.018736134675446,6.953439040707552 L 24.277555179777966,5.987513214418485 A 453.5554838273422 453.5554838273422 0 0 0 129.19165400826736,21.270455558615595 L 129.16414976933402,22.270077245475534 A 454.5554838273422 454.5554838273422 0 0 1 24.018736134675446,6.953439040707552 Z M 148.51954327568416,22.39037691406719 L 148.504466588427,21.390490573775764 A 453.5554838273422 453.5554838273422 0 0 0 253.60042901290709,7.412824754251285 L 252.86005161301304,4.505619686540008 L 260.5073037375491,6.169811665783724 L 254.58759887943248,11.289098177866322 L 253.84722147953843,8.381893110155044 A 454.5554838273422 454.5554838273422 0 0 1 148.51954327568416,22.39037691406719"/><text text-anchor="middle" pointer-events="none" font-size="8px" fill="#000000" x="138.84431372098368" y="24.93327172741641" transform="rotate(180 138.84431372098368 21.93327172741641)" font-family="sans-serif">trek</text></g><g class="relationship" transform="translate(135.18008645342545 -38.70064242679416) rotate(495.83644903149775)"><path class="outline" fill="#A5ABB6" stroke="none" d="M 24.018736134675446,-6.953439040707552 L 24.277555179777966,-5.987513214418485 A 453.5554838273422 453.5554838273422 0 0 1 115.654844525872,-20.695544354837125 L 115.59749430344803,-21.693898476373136 A 454.5554838273422 454.5554838273422 0 0 0 24.018736134675446,-6.953439040707552 Z M 162.09231259848917,-21.98287793991574 L 162.04737647755292,-20.98388807758721 A 453.5554838273422 453.5554838273422 0 0 1 253.60042901290709,-7.412824754251285 L 252.86005161301304,-4.505619686540008 L 260.5073037375491,-6.169811665783724 L 254.58759887943248,-11.289098177866322 L 253.84722147953843,-8.381893110155044 A 454.5554838273422 454.5554838273422 0 0 0 162.09231259848917,-21.98287793991574"/><text text-anchor="middle" pointer-events="none" font-size="8px" fill="#000000" x="138.84431372098354" y="-18.93327172741641" transform="rotate(180 138.84431372098354 -21.93327172741641)" font-family="sans-serif">twowheeler</text></g><g class="relationship" transform="translate(-174.36427275421818 -242.09424191047668) rotate(393.30788173970217)"><path class="outline" fill="#A5ABB6" stroke="none" d="M 21.40063509461097,12.933012701892217 L 21.90063509461097,12.06698729810778 A 325.508663468297 325.508663468297 0 0 0 171.97873527035335,55.429961175933784 L 171.93979243109573,56.42920261586238 A 326.508663468297 326.508663468297 0 0 1 21.40063509461097,12.933012701892217 Z M 191.30171027526825,56.60921809521011 L 191.28135325510252,55.60942532081634 A 325.508663468297 325.508663468297 0 0 0 342.1397657443457,15.044378333114855 L 340.6883315744752,12.418861460091115 L 348.5078774763795,12.095284748920998 L 344.075011304173,18.54506749714651 L 342.62357713430254,15.919550624122769 A 326.508663468297 326.508663468297 0 0 1 191.30171027526825,56.60921809521011"/><text text-anchor="middle" pointer-events="none" font-size="8px" fill="#000000" x="181.62406513919032" y="59.16278960394999" font-family="sans-serif">trek</text></g><g class="relationship" transform="translate(-174.36427275421818 -242.09424191047668) rotate(393.30788173970217)"><path class="outline" fill="#A5ABB6" stroke="none" d="M 25 0.5 L 170.68773300078888 0.5 L 170.68773300078888 -0.5 L 25 -0.5 Z M 192.69945175078888 0.5 L 338.38718475157776 0.5 L 338.38718475157776 3.5 L 345.38718475157776 0 L 338.38718475157776 -3.5 L 338.38718475157776 -0.5 L 192.69945175078888 -0.5 Z"/><text text-anchor="middle" pointer-events="none" font-size="8px" fill="#000000" x="181.69359237578888" y="3" font-family="sans-serif">road</text></g><g class="relationship" transform="translate(-174.36427275421818 -242.09424191047668) rotate(393.30788173970217)"><path class="outline" fill="#A5ABB6" stroke="none" d="M 21.40063509461097,-12.933012701892217 L 21.90063509461097,-12.06698729810778 A 325.508663468297 325.508663468297 0 0 1 158.46023506271828,-54.62117984806946 L 158.37976183817509,-55.61793661886742 A 326.508663468297 326.508663468297 0 0 0 21.40063509461097,-12.933012701892217 Z M 204.8744807922389,-56.05021658136985 L 204.81255436814743,-55.052135864193474 A 325.508663468297 325.508663468297 0 0 1 342.1397657443457,-15.044378333114855 L 340.6883315744752,-12.418861460091115 L 348.5078774763795,-12.095284748920998 L 344.075011304173,-18.54506749714651 L 342.62357713430254,-15.919550624122769 A 326.508663468297 326.508663468297 0 0 0 204.8744807922389,-56.05021658136985"/><text text-anchor="middle" pointer-events="none" font-size="8px" fill="#000000" x="181.6240651391903" y="-53.16278960394999" font-family="sans-serif">twowheeler</text></g></g><g class="layer nodes"><g class="node" aria-label="graph-node219" transform="translate(-428.0607906688274,-10.16476576193719)" style="touch-action: none; -webkit-tap-highlight-color: rgba(0, 0, 0, 0);"><circle class="outline" cx="0" cy="0" r="25" fill="#F16667" stroke="#eb2728" stroke-width="2px"/><text class="caption" text-anchor="middle" pointer-events="none" x="0" y="5" font-size="10px" fill="#FFFFFF" font-family="sans-serif"> Rimbik</text></g><g class="node" aria-label="graph-node209" transform="translate(-69.07498734814467,159.67607691704654)" style="touch-action: none; -webkit-tap-highlight-color: rgba(0, 0, 0, 0);"><circle class="outline" cx="0" cy="0" r="25" fill="#57C7E3" stroke="#23b3d7" stroke-width="2px"/><text class="caption" text-anchor="middle" pointer-events="none" x="0" y="5" font-size="10px" fill="#2A2C34" font-family="sans-serif"> Sandakp…</text></g><g class="node" aria-label="graph-node216" transform="translate(-226.29336547284652,20.155792047888553)" style="touch-action: none; -webkit-tap-highlight-color: rgba(0, 0, 0, 0);"><circle class="outline" cx="0" cy="0" r="25" fill="#D9C8AE" stroke="#c0a378" stroke-width="2px"/><text class="caption" text-anchor="middle" pointer-events="none" x="0" y="5" font-size="10px" fill="#2A2C34" font-family="sans-serif"> Sirikhola</text></g><g class="node" aria-label="graph-node222" transform="translate(135.18008645342545,-38.70064242679416)" style="touch-action: none; -webkit-tap-highlight-color: rgba(0, 0, 0, 0);"><circle class="outline" cx="0" cy="0" r="25" fill="#D9C8AE" stroke="#c0a378" stroke-width="2px"/><text class="caption" text-anchor="middle" pointer-events="none" x="0" y="5" font-size="10px" fill="#2A2C34" font-family="sans-serif"> Gurdum</text></g><g class="node" aria-label="graph-node241" transform="translate(-174.36427275421818,-242.09424191047668)" style="touch-action: none; -webkit-tap-highlight-color: rgba(0, 0, 0, 0);"><circle class="outline" cx="0" cy="0" r="25" fill="#D9C8AE" stroke="#c0a378" stroke-width="2px"/><text class="caption" text-anchor="middle" pointer-events="none" x="0" y="5" font-size="10px" fill="#2A2C34" font-family="sans-serif"> Rammam</text></g></g></svg>