<svg xmlns="http://www.w3.org/2000/svg" width="671.4785766601562" height="86.66122436523438" viewBox="-446.57330322265625 -50.01926040649414 671.4785766601562 86.66122436523438"><title>Neo4j Graph Visualization</title><desc>Created using Neo4j (http://www.neo4j.com/)</desc><g class="layer relationships"><g class="relationship" transform="translate(-417.5732791274829 -6.663591157635494) rotate(359.9866285838988)"><path class="outline" fill="#A5ABB6" stroke="none" d="M 21.40063509461097,12.933012701892217 L 21.90063509461097,12.06698729810778 A 169.75377819101968 169.75377819101968 0 0 0 73.53854626765298,31.52366430999774 L 73.34273926838215,32.50430676218741 A 170.75377819101968 170.75377819101968 0 0 1 21.40063509461097,12.933012701892217 Z M 134.90438281630054,33.47719793945578 L 134.7396610811556,32.49085786120139 A 169.75377819101968 169.75377819101968 0 0 0 186.96660014364954,14.675611951517102 L 185.549446249202,12.031434415977518 L 193.3725400423165,11.809615787062787 L 188.8561386695796,18.201181998903213 L 187.43898477513204,15.55700446336363 A 170.75377819101968 170.75377819101968 0 0 1 134.90438281630054,33.47719793945578"/><text text-anchor="middle" pointer-events="none" font-size="8px" fill="#000000" x="104.08724971387996" y="38.28842460001127" font-family="sans-serif">PublicTransport</text></g><g class="relationship" transform="translate(-202.16593215497633 -6.713861899117569) rotate(359.59356036392194)"><path class="outline" fill="#A5ABB6" stroke="none" d="M 25 0.5 L 76.805955364044 0.5 L 76.805955364044 -0.5 L 25 -0.5 Z M 96.141892864044 0.5 L 147.947848228088 0.5 L 147.947848228088 3.5 L 154.947848228088 0 L 147.947848228088 -3.5 L 147.947848228088 -0.5 L 96.141892864044 -0.5 Z"/><text text-anchor="middle" pointer-events="none" font-size="8px" fill="#000000" x="86.473924114044" y="3" font-family="sans-serif">trek</text></g><g class="relationship" transform="translate(-22.222611460507437 -7.990349018721545) rotate(359.3973958549245)"><path class="outline" fill="#A5ABB6" stroke="none" d="M 25 0.5 L 95.9020051586568 0.5 L 95.9020051586568 -0.5 L 25 -0.5 Z M 115.2379426586568 0.5 L 186.1399478173136 0.5 L 186.1399478173136 3.5 L 193.1399478173136 0 L 186.1399478173136 -3.5 L 186.1399478173136 -0.5 L 115.2379426586568 -0.5 Z"/><text text-anchor="middle" pointer-events="none" font-size="8px" fill="#000000" x="105.5699739086568" y="3" font-family="sans-serif">trek</text></g><g class="relationship" transform="translate(-417.5732791274829 -6.663591157635494) rotate(359.9866285838988)"><path class="outline" fill="#A5ABB6" stroke="none" d="M 25 0.5 L 94.53570766923986 0.5 L 94.53570766923986 -0.5 L 25 -0.5 Z M 113.87164516923986 0.5 L 183.4073528384797 0.5 L 183.4073528384797 3.5 L 190.4073528384797 0 L 183.4073528384797 -3.5 L 183.4073528384797 -0.5 L 113.87164516923986 -0.5 Z"/><text text-anchor="middle" pointer-events="none" font-size="8px" fill="#000000" x="104.20367641923986" y="3" font-family="sans-serif">trek</text></g><g class="relationship" transform="translate(-417.5732791274829 -6.663591157635494) rotate(359.9866285838988)"><path class="outline" fill="#A5ABB6" stroke="none" d="M 21.40063509461097,-12.933012701892217 L 21.90063509461097,-12.06698729810778 A 169.75377819101968 169.75377819101968 0 0 1 93.13622595103098,-34.260690731389616 L 93.05586663069974,-35.25745669170121 A 170.75377819101968 170.75377819101968 0 0 0 21.40063509461097,-12.933012701892217 Z M 115.11410252382777,-35.60605464733936 L 115.06528030494613,-34.60724716291432 A 169.75377819101968 169.75377819101968 0 0 1 186.96660014364954,-14.675611951517102 L 185.549446249202,-12.031434415977518 L 193.3725400423165,-11.809615787062787 L 188.8561386695796,-18.201181998903213 L 187.43898477513204,-15.55700446336363 A 170.75377819101968 170.75377819101968 0 0 0 115.11410252382777,-35.60605464733936"/><text text-anchor="middle" pointer-events="none" font-size="8px" fill="#000000" x="104.08724971387994" y="-32.28842460001127" font-family="sans-serif">road</text></g></g><g class="layer nodes"><g class="node" aria-label="graph-node267" transform="translate(-417.5732791274829,-6.663591157635494)" style="touch-action: none; -webkit-tap-highlight-color: rgba(0, 0, 0, 0);"><circle class="outline" cx="0" cy="0" r="25" fill="#F16667" stroke="#eb2728" stroke-width="2px"/><text class="caption" text-anchor="middle" pointer-events="none" x="0" y="5" font-size="10px" fill="#FFFFFF" font-family="sans-serif"> Darjeeling</text></g><g class="node" aria-label="graph-node209" transform="translate(195.9052715555971,-10.284577571616097)" style="touch-action: none; -webkit-tap-highlight-color: rgba(0, 0, 0, 0);"><circle class="outline" cx="0" cy="0" r="25" fill="#57C7E3" stroke="#23b3d7" stroke-width="2px"/><text class="caption" text-anchor="middle" pointer-events="none" x="0" y="5" font-size="10px" fill="#2A2C34" font-family="sans-serif"> Sandakp…</text></g><g class="node" aria-label="graph-node219" transform="translate(-202.16593215497633,-6.713861899117569)" style="touch-action: none; -webkit-tap-highlight-color: rgba(0, 0, 0, 0);"><circle class="outline" cx="0" cy="0" r="25" fill="#F16667" stroke="#eb2728" stroke-width="2px"/><text class="caption" text-anchor="middle" pointer-events="none" x="0" y="5" font-size="10px" fill="#FFFFFF" font-family="sans-serif"> Rimbik</text></g><g class="node" aria-label="graph-node208" transform="translate(-22.222611460507437,-7.990349018721545)" style="touch-action: none; -webkit-tap-highlight-color: rgba(0, 0, 0, 0);"><circle class="outline" cx="0" cy="0" r="25" fill="#D9C8AE" stroke="#c0a378" stroke-width="2px"/><text class="caption" text-anchor="middle" pointer-events="none" x="0" y="5" font-size="10px" fill="#2A2C34" font-family="sans-serif"> BhikeBh…</text></g></g></svg>